<?xml version="1.0" encoding="UTF-8" standalone="no"?>
<!-- Created with Inkscape (http://www.inkscape.org/) -->

<svg
   xmlns:dc="http://purl.org/dc/elements/1.1/"
   xmlns:cc="http://creativecommons.org/ns#"
   xmlns:rdf="http://www.w3.org/1999/02/22-rdf-syntax-ns#"
   xmlns:svg="http://www.w3.org/2000/svg"
   xmlns="http://www.w3.org/2000/svg"
   xmlns:sodipodi="http://sodipodi.sourceforge.net/DTD/sodipodi-0.dtd"
   xmlns:inkscape="http://www.inkscape.org/namespaces/inkscape"
   id="svg2"
   version="1.1"
   inkscape:version="0.48.3.1 r9886"
   width="1955.9326"
   height="1048.0265"
   xml:space="preserve"
   sodipodi:docname="instruction_type.svg"
   inkscape:export-filename="/Users/jgrizou/Dropbox/shared/BordeauxBielefeld/sharedBordeauxBielefeld/images/plots/meanings/instruction_type.png"
   inkscape:export-xdpi="90"
   inkscape:export-ydpi="90"><metadata
     id="metadata8"><rdf:RDF><cc:Work
         rdf:about=""><dc:format>image/svg+xml</dc:format><dc:type
           rdf:resource="http://purl.org/dc/dcmitype/StillImage" /><dc:title /></cc:Work></rdf:RDF></metadata><defs
     id="defs6"><clipPath
       clipPathUnits="userSpaceOnUse"
       id="clipPath22"><path
         d="m 769.812,888.805 13773.488,0 0,6564.375 -13773.488,0 0,-6564.375 z"
         id="path24"
         inkscape:connector-curvature="0" /></clipPath></defs><sodipodi:namedview
     pagecolor="#ffffff"
     bordercolor="#666666"
     borderopacity="1"
     objecttolerance="10"
     gridtolerance="10"
     guidetolerance="10"
     inkscape:pageopacity="0"
     inkscape:pageshadow="2"
     inkscape:window-width="1855"
     inkscape:window-height="1176"
     id="namedview4"
     showgrid="false"
     inkscape:zoom="0.42857143"
     inkscape:cx="1049.7891"
     inkscape:cy="507.54581"
     inkscape:window-x="65"
     inkscape:window-y="313"
     inkscape:window-maximized="1"
     inkscape:current-layer="g324" /><g
     id="g10"
     inkscape:groupmode="layer"
     inkscape:label="ink_ext_XXXXXX"
     transform="matrix(1.25,0,0,-1.25,-19.725201,1056.1474)"><g
       id="g12"
       transform="scale(0.110429,0.110429)"><g
         id="g18"><g
           id="g20"
           clip-path="url(#clipPath22)"><path
             d="m 1204.75,888.832 579.875,0 0,6199.88 -579.875,0 0,-6199.88 z"
             style="fill:#00adcc;fill-opacity:1;fill-rule:nonzero;stroke:none"
             id="path26"
             inkscape:connector-curvature="0" /><path
             d="m 1204.75,888.832 579.875,0 0,6199.88 -579.875,0 0,-6199.88 z"
             style="fill:none;stroke:#000000;stroke-width:9.05556011;stroke-linecap:square;stroke-linejoin:round;stroke-miterlimit:10;stroke-opacity:1;stroke-dasharray:none"
             id="path28"
             inkscape:connector-curvature="0" /><path
             d="m 2654.42,888.832 579.875,0 0,6199.88 -579.875,0 0,-6199.88 z"
             style="fill:#00adcc;fill-opacity:1;fill-rule:nonzero;stroke:none"
             id="path30"
             inkscape:connector-curvature="0" /><path
             d="m 2654.42,888.832 579.875,0 0,6199.88 -579.875,0 0,-6199.88 z"
             style="fill:none;stroke:#000000;stroke-width:9.05556011;stroke-linecap:square;stroke-linejoin:round;stroke-miterlimit:10;stroke-opacity:1;stroke-dasharray:none"
             id="path32"
             inkscape:connector-curvature="0" /><path
             d="m 4104.09,888.832 579.875,0 0,4741.08 -579.875,0 0,-4741.08 z"
             style="fill:#00adcc;fill-opacity:1;fill-rule:nonzero;stroke:none"
             id="path34"
             inkscape:connector-curvature="0" /><path
             d="m 4104.09,888.832 579.875,0 0,4741.08 -579.875,0 0,-4741.08 z"
             style="fill:none;stroke:#000000;stroke-width:9.05556011;stroke-linecap:square;stroke-linejoin:round;stroke-miterlimit:10;stroke-opacity:1;stroke-dasharray:none"
             id="path36"
             inkscape:connector-curvature="0" /><path
             d="m 5553.75,888.832 579.871,0 0,2188.19 -579.871,0 0,-2188.19 z"
             style="fill:#00adcc;fill-opacity:1;fill-rule:nonzero;stroke:none"
             id="path38"
             inkscape:connector-curvature="0" /><path
             d="m 5553.75,888.832 579.871,0 0,2188.19 -579.871,0 0,-2188.19 z"
             style="fill:none;stroke:#000000;stroke-width:9.05556011;stroke-linecap:square;stroke-linejoin:round;stroke-miterlimit:10;stroke-opacity:1;stroke-dasharray:none"
             id="path40"
             inkscape:connector-curvature="0" /><path
             d="m 7003.42,888.832 579.863,0 0,3282.29 -579.863,0 0,-3282.29 z"
             style="fill:#00adcc;fill-opacity:1;fill-rule:nonzero;stroke:none"
             id="path42"
             inkscape:connector-curvature="0" /><path
             d="m 7003.42,888.832 579.863,0 0,3282.29 -579.863,0 0,-3282.29 z"
             style="fill:none;stroke:#000000;stroke-width:9.05556011;stroke-linecap:square;stroke-linejoin:round;stroke-miterlimit:10;stroke-opacity:1;stroke-dasharray:none"
             id="path44"
             inkscape:connector-curvature="0" /><path
             d="m 8453.09,888.832 579.863,0 0,2552.89 -579.863,0 0,-2552.89 z"
             style="fill:#00adcc;fill-opacity:1;fill-rule:nonzero;stroke:none"
             id="path46"
             inkscape:connector-curvature="0" /><path
             d="m 8453.09,888.832 579.863,0 0,2552.89 -579.863,0 0,-2552.89 z"
             style="fill:none;stroke:#000000;stroke-width:9.05556011;stroke-linecap:square;stroke-linejoin:round;stroke-miterlimit:10;stroke-opacity:1;stroke-dasharray:none"
             id="path48"
             inkscape:connector-curvature="0" /><path
             d="m 9902.79,888.832 579.828,0 0,1458.79 -579.828,0 0,-1458.79 z"
             style="fill:#00adcc;fill-opacity:1;fill-rule:nonzero;stroke:none"
             id="path50"
             inkscape:connector-curvature="0" /><path
             d="m 9902.79,888.832 579.828,0 0,1458.79 -579.828,0 0,-1458.79 z"
             style="fill:none;stroke:#000000;stroke-width:9.05556011;stroke-linecap:square;stroke-linejoin:round;stroke-miterlimit:10;stroke-opacity:1;stroke-dasharray:none"
             id="path52"
             inkscape:connector-curvature="0" /><path
             d="m 11352.4,888.832 579.918,0 0,729.395 -579.918,0 0,-729.395 z"
             style="fill:#00adcc;fill-opacity:1;fill-rule:nonzero;stroke:none"
             id="path54"
             inkscape:connector-curvature="0" /><path
             d="m 11352.4,888.832 579.918,0 0,729.395 -579.918,0 0,-729.395 z"
             style="fill:none;stroke:#000000;stroke-width:9.05556011;stroke-linecap:square;stroke-linejoin:round;stroke-miterlimit:10;stroke-opacity:1;stroke-dasharray:none"
             id="path56"
             inkscape:connector-curvature="0" /><path
             d="m 12802.1,888.832 579.828,0 0,364.703 -579.828,0 0,-364.703 z"
             style="fill:#00adcc;fill-opacity:1;fill-rule:nonzero;stroke:none"
             id="path58"
             inkscape:connector-curvature="0" /><path
             d="m 12802.1,888.832 579.828,0 0,364.703 -579.828,0 0,-364.703 z"
             style="fill:none;stroke:#000000;stroke-width:9.05556011;stroke-linecap:square;stroke-linejoin:round;stroke-miterlimit:10;stroke-opacity:1;stroke-dasharray:none"
             id="path60"
             inkscape:connector-curvature="0" /><path
             d="m 1784.62,888.832 579.863,0 0,6199.88 -579.863,0 0,-6199.88 z"
             style="fill:#c3cc00;fill-opacity:1;fill-rule:nonzero;stroke:none"
             id="path62"
             inkscape:connector-curvature="0" /><path
             d="m 1784.62,888.832 579.863,0 0,6199.88 -579.863,0 0,-6199.88 z"
             style="fill:none;stroke:#000000;stroke-width:9.05556011;stroke-linecap:square;stroke-linejoin:round;stroke-miterlimit:10;stroke-opacity:1;stroke-dasharray:none"
             id="path64"
             inkscape:connector-curvature="0" /><path
             d="m 3234.29,888.832 579.863,0 0,6199.88 -579.863,0 0,-6199.88 z"
             style="fill:#c3cc00;fill-opacity:1;fill-rule:nonzero;stroke:none"
             id="path66"
             inkscape:connector-curvature="0" /><path
             d="m 3234.29,888.832 579.863,0 0,6199.88 -579.863,0 0,-6199.88 z"
             style="fill:none;stroke:#000000;stroke-width:9.05556011;stroke-linecap:square;stroke-linejoin:round;stroke-miterlimit:10;stroke-opacity:1;stroke-dasharray:none"
             id="path68"
             inkscape:connector-curvature="0" /><path
             d="m 4683.96,888.832 579.863,0 0,5105.78 -579.863,0 0,-5105.78 z"
             style="fill:#c3cc00;fill-opacity:1;fill-rule:nonzero;stroke:none"
             id="path70"
             inkscape:connector-curvature="0" /><path
             d="m 4683.96,888.832 579.863,0 0,5105.78 -579.863,0 0,-5105.78 z"
             style="fill:none;stroke:#000000;stroke-width:9.05556011;stroke-linecap:square;stroke-linejoin:round;stroke-miterlimit:10;stroke-opacity:1;stroke-dasharray:none"
             id="path72"
             inkscape:connector-curvature="0" /><path
             d="m 6133.62,888.832 579.863,0 0,1458.79 -579.863,0 0,-1458.79 z"
             style="fill:#c3cc00;fill-opacity:1;fill-rule:nonzero;stroke:none"
             id="path74"
             inkscape:connector-curvature="0" /><path
             d="m 6133.62,888.832 579.863,0 0,1458.79 -579.863,0 0,-1458.79 z"
             style="fill:none;stroke:#000000;stroke-width:9.05556011;stroke-linecap:square;stroke-linejoin:round;stroke-miterlimit:10;stroke-opacity:1;stroke-dasharray:none"
             id="path76"
             inkscape:connector-curvature="0" /><path
             d="m 7583.29,888.832 579.871,0 0,1458.79 -579.871,0 0,-1458.79 z"
             style="fill:#c3cc00;fill-opacity:1;fill-rule:nonzero;stroke:none"
             id="path78"
             inkscape:connector-curvature="0" /><path
             d="m 7583.29,888.832 579.871,0 0,1458.79 -579.871,0 0,-1458.79 z"
             style="fill:none;stroke:#000000;stroke-width:9.05556011;stroke-linecap:square;stroke-linejoin:round;stroke-miterlimit:10;stroke-opacity:1;stroke-dasharray:none"
             id="path80"
             inkscape:connector-curvature="0" /><path
             d="m 9032.95,888.832 579.883,0 0,1823.49 -579.883,0 0,-1823.49 z"
             style="fill:#c3cc00;fill-opacity:1;fill-rule:nonzero;stroke:none"
             id="path82"
             inkscape:connector-curvature="0" /><path
             d="m 9032.95,888.832 579.883,0 0,1823.49 -579.883,0 0,-1823.49 z"
             style="fill:none;stroke:#000000;stroke-width:9.05556011;stroke-linecap:square;stroke-linejoin:round;stroke-miterlimit:10;stroke-opacity:1;stroke-dasharray:none"
             id="path84"
             inkscape:connector-curvature="0" /><path
             d="m 10482.6,888.832 579.828,0 0,729.395 -579.828,0 0,-729.395 z"
             style="fill:#c3cc00;fill-opacity:1;fill-rule:nonzero;stroke:none"
             id="path86"
             inkscape:connector-curvature="0" /><path
             d="m 10482.6,888.832 579.828,0 0,729.395 -579.828,0 0,-729.395 z"
             style="fill:none;stroke:#000000;stroke-width:9.05556011;stroke-linecap:square;stroke-linejoin:round;stroke-miterlimit:10;stroke-opacity:1;stroke-dasharray:none"
             id="path88"
             inkscape:connector-curvature="0" /><path
             d="m 11932.3,888.832 579.828,0 0,0 -579.828,0 z"
             style="fill:#c3cc00;fill-opacity:1;fill-rule:nonzero;stroke:none"
             id="path90"
             inkscape:connector-curvature="0" /><path
             d="m 11932.3,888.832 579.828,0 0,0 -579.828,0 z"
             style="fill:none;stroke:#000000;stroke-width:9.05556011;stroke-linecap:square;stroke-linejoin:round;stroke-miterlimit:10;stroke-opacity:1;stroke-dasharray:none"
             id="path92"
             inkscape:connector-curvature="0" /><path
             d="m 13381.9,888.832 579.918,0 0,729.395 -579.918,0 0,-729.395 z"
             style="fill:#c3cc00;fill-opacity:1;fill-rule:nonzero;stroke:none"
             id="path94"
             inkscape:connector-curvature="0" /><path
             d="m 13381.9,888.832 579.918,0 0,729.395 -579.918,0 0,-729.395 z"
             style="fill:none;stroke:#000000;stroke-width:9.05556011;stroke-linecap:square;stroke-linejoin:round;stroke-miterlimit:10;stroke-opacity:1;stroke-dasharray:none"
             id="path96"
             inkscape:connector-curvature="0" /></g></g><path
         d="m 1784.62,888.832 0,36.223"
         style="fill:#000000;fill-opacity:1;fill-rule:nonzero;stroke:none"
         id="path98"
         inkscape:connector-curvature="0" /><path
         d="m 1784.62,888.832 0,36.223"
         style="fill:none;stroke:#000000;stroke-width:4.52778006;stroke-linecap:butt;stroke-linejoin:round;stroke-miterlimit:10;stroke-opacity:1;stroke-dasharray:none"
         id="path100"
         inkscape:connector-curvature="0" /><g
         id="g106"
         transform="scale(9.05556,9.05556)"><text
   transform="matrix(1,0,0,-1,142.457,75.1528)"
   id="text108"><tspan
     style="font-size:25px;font-variant:normal;font-weight:normal;writing-mode:lr-tb;fill:#000000;fill-opacity:1;fill-rule:nonzero;stroke:none;font-family:Arial;-inkscape-font-specification:Arial"
     x="0 18.322668 35.498329 50.378693 58.947762 70.898735 79.467804 95.764351"
     y="0"
     sodipodi:role="line"
     id="tspan110">Positive</tspan><tspan
     style="font-size:25px;font-variant:normal;font-weight:normal;writing-mode:lr-tb;fill:#000000;fill-opacity:1;fill-rule:nonzero;stroke:none;font-family:Arial;-inkscape-font-specification:Arial"
     x="-17.023399 -8.319747 7.7580857 24.713316 41.668976 59.564583 77.46019 94.330009 109.14957"
     y="29.0434"
     sodipodi:role="line"
     id="tspan112"> Feedback</tspan></text>



</g><path
         d="m 3234.29,888.832 0,36.223"
         style="fill:#000000;fill-opacity:1;fill-rule:nonzero;stroke:none"
         id="path114"
         inkscape:connector-curvature="0" /><path
         d="m 3234.29,888.832 0,36.223"
         style="fill:none;stroke:#000000;stroke-width:4.52778006;stroke-linecap:butt;stroke-linejoin:round;stroke-miterlimit:10;stroke-opacity:1;stroke-dasharray:none"
         id="path116"
         inkscape:connector-curvature="0" /><g
         id="g122"
         transform="scale(9.05556,9.05556)"><text
   transform="matrix(1,0,0,-1,295.7,75.1528)"
   id="text124"><tspan
     style="font-size:25px;font-variant:normal;font-weight:normal;writing-mode:lr-tb;fill:#000000;fill-opacity:1;fill-rule:nonzero;stroke:none;font-family:Arial;-inkscape-font-specification:Arial"
     x="0 20.922493 37.878155 55.773762 72.644012 84.594551 93.164055 109.46017"
     y="0"
     sodipodi:role="line"
     id="tspan126">Negative</tspan><tspan
     style="font-size:25px;font-variant:normal;font-weight:normal;writing-mode:lr-tb;fill:#000000;fill-opacity:1;fill-rule:nonzero;stroke:none;font-family:Arial;-inkscape-font-specification:Arial"
     x="-10.1798 -1.4761604 14.601254 31.556917 48.512577 66.40818 84.30336 101.17361 115.99316"
     y="29.0434"
     sodipodi:role="line"
     id="tspan128"> Feedback</tspan></text>



</g><path
         d="m 4683.96,888.832 0,36.223"
         style="fill:#000000;fill-opacity:1;fill-rule:nonzero;stroke:none"
         id="path130"
         inkscape:connector-curvature="0" /><path
         d="m 4683.96,888.832 0,36.223"
         style="fill:none;stroke:#000000;stroke-width:4.52778006;stroke-linecap:butt;stroke-linejoin:round;stroke-miterlimit:10;stroke-opacity:1;stroke-dasharray:none"
         id="path132"
         inkscape:connector-curvature="0" /><g
         id="g138"
         transform="scale(9.05556,9.05556)"><text
   transform="matrix(1,0,0,-1,493.059,75.1528)"
   id="text140"><tspan
     style="font-size:25px;font-variant:normal;font-weight:normal;writing-mode:lr-tb;fill:#000000;fill-opacity:1;fill-rule:nonzero;stroke:none;font-family:Arial;-inkscape-font-specification:Arial"
     x="0 17.077318 34.875431"
     y="0"
     sodipodi:role="line"
     id="tspan142">End</tspan></text>



</g><path
         d="m 6133.62,888.832 0,36.223"
         style="fill:#000000;fill-opacity:1;fill-rule:nonzero;stroke:none"
         id="path144"
         inkscape:connector-curvature="0" /><path
         d="m 6133.62,888.832 0,36.223"
         style="fill:none;stroke:#000000;stroke-width:4.52778006;stroke-linecap:butt;stroke-linejoin:round;stroke-miterlimit:10;stroke-opacity:1;stroke-dasharray:none"
         id="path146"
         inkscape:connector-curvature="0" /><g
         id="g152"
         transform="scale(9.05556,9.05556)"><text
   transform="matrix(1,0,0,-1,638.778,75.9345)"
   id="text154"><tspan
     style="font-size:25px;font-variant:normal;font-weight:normal;writing-mode:lr-tb;fill:#000000;fill-opacity:1;fill-rule:nonzero;stroke:none;font-family:Arial;-inkscape-font-specification:Arial"
     x="0 19.25054 36.2062 51.086594 68.041824"
     y="0"
     sodipodi:role="line"
     id="tspan156">Reset</tspan></text>



</g><path
         d="m 7583.29,888.832 0,36.223"
         style="fill:#000000;fill-opacity:1;fill-rule:nonzero;stroke:none"
         id="path158"
         inkscape:connector-curvature="0" /><path
         d="m 7583.29,888.832 0,36.223"
         style="fill:none;stroke:#000000;stroke-width:4.52778006;stroke-linecap:butt;stroke-linejoin:round;stroke-miterlimit:10;stroke-opacity:1;stroke-dasharray:none"
         id="path160"
         inkscape:connector-curvature="0" /><g
         id="g166"
         transform="scale(9.05556,9.05556)"><text
   transform="matrix(1,0,0,-1,773.028,75.1528)"
   id="text168"><tspan
     style="font-size:25px;font-variant:normal;font-weight:normal;writing-mode:lr-tb;fill:#000000;fill-opacity:1;fill-rule:nonzero;stroke:none;font-family:Arial;-inkscape-font-specification:Arial"
     x="0 20.520039 38.318153 46.887222 64.782852 81.653107 99.45079 114.27034"
     y="0"
     sodipodi:role="line"
     id="tspan170">Guidance</tspan></text>



</g><path
         d="m 9032.95,888.832 0,36.223"
         style="fill:#000000;fill-opacity:1;fill-rule:nonzero;stroke:none"
         id="path172"
         inkscape:connector-curvature="0" /><path
         d="m 9032.95,888.832 0,36.223"
         style="fill:none;stroke:#000000;stroke-width:4.52778006;stroke-linecap:butt;stroke-linejoin:round;stroke-miterlimit:10;stroke-opacity:1;stroke-dasharray:none"
         id="path174"
         inkscape:connector-curvature="0" /><g
         id="g180"
         transform="scale(9.05556,9.05556)"><text
   transform="matrix(1,0,0,-1,961.372,75.1528)"
   id="text182"><tspan
     style="font-size:25px;font-variant:normal;font-weight:normal;writing-mode:lr-tb;fill:#000000;fill-opacity:1;fill-rule:nonzero;stroke:none;font-family:Arial;-inkscape-font-specification:Arial"
     x="0 18.347197 35.522198 44.091698 61.266697"
     y="0"
     sodipodi:role="line"
     id="tspan184">Color</tspan></text>



</g><path
         d="m 10482.6,888.832 0,36.223"
         style="fill:#000000;fill-opacity:1;fill-rule:nonzero;stroke:none"
         id="path186"
         inkscape:connector-curvature="0" /><path
         d="m 10482.6,888.832 0,36.223"
         style="fill:none;stroke:#000000;stroke-width:4.52778006;stroke-linecap:butt;stroke-linejoin:round;stroke-miterlimit:10;stroke-opacity:1;stroke-dasharray:none"
         id="path188"
         inkscape:connector-curvature="0" /><g
         id="g194"
         transform="scale(9.05556,9.05556)"><text
   transform="matrix(1,0,0,-1,1130.05,75.1528)"
   id="text196"><tspan
     style="font-size:25px;font-variant:normal;font-weight:normal;writing-mode:lr-tb;fill:#000000;fill-opacity:1;fill-rule:nonzero;stroke:none;font-family:Arial;-inkscape-font-specification:Arial"
     x="0 18.005608 26.574677 41.125431"
     y="0"
     sodipodi:role="line"
     id="tspan198">Size</tspan></text>



</g><path
         d="m 11932.3,888.832 0,36.223"
         style="fill:#000000;fill-opacity:1;fill-rule:nonzero;stroke:none"
         id="path200"
         inkscape:connector-curvature="0" /><path
         d="m 11932.3,888.832 0,36.223"
         style="fill:none;stroke:#000000;stroke-width:4.52778006;stroke-linecap:butt;stroke-linejoin:round;stroke-miterlimit:10;stroke-opacity:1;stroke-dasharray:none"
         id="path202"
         inkscape:connector-curvature="0" /><g
         id="g208"
         transform="scale(9.05556,9.05556)"><text
   transform="matrix(1,0,0,-1,1259.64,75.1528)"
   id="text210"><tspan
     style="font-size:25px;font-variant:normal;font-weight:normal;writing-mode:lr-tb;fill:#000000;fill-opacity:1;fill-rule:nonzero;stroke:none;font-family:Arial;-inkscape-font-specification:Arial"
     x="0 15.930285 33.105286 47.924355 64.794609 76.745148 85.314644 102.48965"
     y="0"
     sodipodi:role="line"
     id="tspan212">Location</tspan></text>



</g><path
         d="m 13381.9,888.832 0,36.223"
         style="fill:#000000;fill-opacity:1;fill-rule:nonzero;stroke:none"
         id="path214"
         inkscape:connector-curvature="0" /><path
         d="m 13381.9,888.832 0,36.223"
         style="fill:none;stroke:#000000;stroke-width:4.52778006;stroke-linecap:butt;stroke-linejoin:round;stroke-miterlimit:10;stroke-opacity:1;stroke-dasharray:none"
         id="path216"
         inkscape:connector-curvature="0" /><g
         id="g222"
         transform="scale(9.05556,9.05556)"><text
   transform="matrix(1,0,0,-1,1436.09,75.5907)"
   id="text224"><tspan
     style="font-size:25px;font-variant:normal;font-weight:normal;writing-mode:lr-tb;fill:#000000;fill-opacity:1;fill-rule:nonzero;stroke:none;font-family:Arial;-inkscape-font-specification:Arial"
     x="0 20.520039 32.848923 50.023922 67.82209"
     y="0"
     sodipodi:role="line"
     id="tspan226">Group</tspan></text>



<text
   transform="scale(1,-1)"
   id="text228"
   x="682.82623"
   y="-13.152983"
   style="font-size:32.00011444px;font-style:normal;font-variant:normal;font-weight:normal;font-stretch:normal;text-align:start;line-height:125%;writing-mode:lr-tb;text-anchor:start;font-family:Sans;-inkscape-font-specification:Sans"
   sodipodi:linespacing="125%"><tspan
     style="font-size:32.00011444px;font-style:normal;font-variant:normal;font-weight:normal;font-stretch:normal;text-align:start;line-height:125%;writing-mode:lr-tb;text-anchor:start;fill:#000000;fill-opacity:1;fill-rule:nonzero;stroke:none;font-family:Sans;-inkscape-font-specification:Sans"
     x="682.82623"
     sodipodi:role="line"
     id="tspan230"
     y="-13.152983">Meaning categories</tspan></text>



</g><path
         d="m 769.855,888.832 36.223,0"
         style="fill:#000000;fill-opacity:1;fill-rule:nonzero;stroke:none"
         id="path232"
         inkscape:connector-curvature="0" /><path
         d="m 769.855,888.832 36.223,0"
         style="fill:none;stroke:#000000;stroke-width:4.52778006;stroke-linecap:butt;stroke-linejoin:round;stroke-miterlimit:10;stroke-opacity:1;stroke-dasharray:none"
         id="path234"
         inkscape:connector-curvature="0" /><g
         id="g240"
         transform="scale(9.05556,9.05556)"><text
   transform="matrix(1,0,0,-1,66.0144,89.0514)"
   id="text242"><tspan
     style="font-size:25px;font-variant:normal;font-weight:normal;writing-mode:lr-tb;fill:#000000;fill-opacity:1;fill-rule:nonzero;stroke:none;font-family:Arial;-inkscape-font-specification:Arial"
     x="0"
     y="0"
     id="tspan244">0</tspan></text>



</g><path
         d="m 769.855,2712.32 36.223,0"
         style="fill:#000000;fill-opacity:1;fill-rule:nonzero;stroke:none"
         id="path246"
         inkscape:connector-curvature="0" /><path
         d="m 769.855,2712.32 36.223,0"
         style="fill:none;stroke:#000000;stroke-width:4.52778006;stroke-linecap:butt;stroke-linejoin:round;stroke-miterlimit:10;stroke-opacity:1;stroke-dasharray:none"
         id="path248"
         inkscape:connector-curvature="0" /><g
         id="g254"
         transform="scale(9.05556,9.05556)"><text
   transform="matrix(1,0,0,-1,67.296,290.591)"
   id="text256"><tspan
     style="font-size:25px;font-variant:normal;font-weight:normal;writing-mode:lr-tb;fill:#000000;fill-opacity:1;fill-rule:nonzero;stroke:none;font-family:Arial;-inkscape-font-specification:Arial"
     x="0"
     y="0"
     id="tspan258">5</tspan></text>



</g><path
         d="m 769.855,4535.82 36.223,0"
         style="fill:#000000;fill-opacity:1;fill-rule:nonzero;stroke:none"
         id="path260"
         inkscape:connector-curvature="0" /><path
         d="m 769.855,4535.82 36.223,0"
         style="fill:none;stroke:#000000;stroke-width:4.52778006;stroke-linecap:butt;stroke-linejoin:round;stroke-miterlimit:10;stroke-opacity:1;stroke-dasharray:none"
         id="path262"
         inkscape:connector-curvature="0" /><g
         id="g268"
         transform="scale(9.05556,9.05556)"><text
   transform="matrix(1,0,0,-1,50.2488,491.786)"
   id="text270"><tspan
     style="font-size:25px;font-variant:normal;font-weight:normal;writing-mode:lr-tb;fill:#000000;fill-opacity:1;fill-rule:nonzero;stroke:none;font-family:Arial;-inkscape-font-specification:Arial"
     x="0 17.395227"
     y="0"
     sodipodi:role="line"
     id="tspan272">10</tspan></text>



</g><path
         d="m 769.855,5994.61 36.223,0"
         style="fill:#000000;fill-opacity:1;fill-rule:nonzero;stroke:none"
         id="path274"
         inkscape:connector-curvature="0" /><path
         d="m 769.855,5994.61 36.223,0"
         style="fill:none;stroke:#000000;stroke-width:4.52778006;stroke-linecap:butt;stroke-linejoin:round;stroke-miterlimit:10;stroke-opacity:1;stroke-dasharray:none"
         id="path276"
         inkscape:connector-curvature="0" /><g
         id="g282"
         transform="scale(9.05556,9.05556)"><text
   transform="matrix(1,0,0,-1,50.2023,652.872)"
   id="text284"><tspan
     style="font-size:25px;font-variant:normal;font-weight:normal;writing-mode:lr-tb;fill:#000000;fill-opacity:1;fill-rule:nonzero;stroke:none;font-family:Arial;-inkscape-font-specification:Arial"
     x="0 17.394796"
     y="0"
     sodipodi:role="line"
     id="tspan286">14</tspan></text>



</g><path
         d="m 769.855,7088.71 36.223,0"
         style="fill:#000000;fill-opacity:1;fill-rule:nonzero;stroke:none"
         id="path288"
         inkscape:connector-curvature="0" /><path
         d="m 769.855,7088.71 36.223,0"
         style="fill:none;stroke:#000000;stroke-width:4.52778006;stroke-linecap:butt;stroke-linejoin:round;stroke-miterlimit:10;stroke-opacity:1;stroke-dasharray:none"
         id="path290"
         inkscape:connector-curvature="0" /><g
         id="g296"
         transform="scale(9.05556,9.05556)"><text
   transform="matrix(1,0,0,-1,51.046,773.692)"
   id="text298"><tspan
     style="font-size:25px;font-variant:normal;font-weight:normal;writing-mode:lr-tb;fill:#000000;fill-opacity:1;fill-rule:nonzero;stroke:none;font-family:Arial;-inkscape-font-specification:Arial"
     x="0 17.394796"
     y="0"
     sodipodi:role="line"
     id="tspan300">17</tspan></text>



<text
   transform="matrix(0,1,1,0,38.9678,264.63)"
   id="text302"
   style="font-size:32.00011444px;font-style:normal;font-variant:normal;font-weight:normal;font-stretch:normal;text-align:start;line-height:125%;writing-mode:lr-tb;text-anchor:start;font-family:Arial;-inkscape-font-specification:Arial"
   sodipodi:linespacing="125%"><tspan
     style="font-size:32.00011444px;font-style:normal;font-variant:normal;font-weight:normal;font-stretch:normal;text-align:start;line-height:125%;writing-mode:lr-tb;text-anchor:start;fill:#000000;fill-opacity:1;fill-rule:nonzero;stroke:none;font-family:Arial;-inkscape-font-specification:Arial"
     x="0"
     y="0"
     sodipodi:role="line"
     id="tspan304">Number of participants</tspan></text>



</g><path
         d="m 769.855,888.832 13538.257,0"
         style="fill:none;stroke:#000000;stroke-width:8.97843456;stroke-linecap:square;stroke-linejoin:round;stroke-miterlimit:10;stroke-opacity:1;stroke-dasharray:none"
         id="path310"
         inkscape:connector-curvature="0" /><path
         d="m 769.855,888.832 0,6197.6989"
         style="fill:none;stroke:#000000;stroke-width:8.80088329;stroke-linecap:square;stroke-linejoin:round;stroke-miterlimit:10;stroke-opacity:1;stroke-dasharray:none"
         id="path312"
         inkscape:connector-curvature="0" /><g
         id="g314"
         transform="scale(9.05556,9.05556)"><text
   transform="scale(1,-1)"
   id="text316"
   sodipodi:linespacing="125%"
   style="font-size:32.00011444px;font-style:normal;font-variant:normal;font-weight:normal;font-stretch:normal;text-align:start;line-height:125%;writing-mode:lr-tb;text-anchor:start;font-family:Sans;-inkscape-font-specification:Sans"
   x="288.80511"
   y="-820.60834"><tspan
     style="font-size:32.00011444px;font-style:normal;font-variant:normal;font-weight:normal;font-stretch:normal;text-align:start;line-height:125%;writing-mode:lr-tb;text-anchor:start;fill:#000000;fill-opacity:1;fill-rule:nonzero;stroke:none;font-family:Sans;-inkscape-font-specification:Sans"
     x="288.80511"
     y="-820.60834"
     sodipodi:role="line"
     id="tspan318">Number of participants using/interpreting different meaning categories</tspan></text>



</g><g
         id="g3315"
         transform="translate(-1727.0846,-741.63043)"><path
           id="path320"
           style="fill:#00adcc;fill-opacity:1;fill-rule:nonzero;stroke:none"
           d="m 12147.2,7002.47 543.332,0 0,190.164 -543.332,0 0,-190.164 z"
           inkscape:connector-curvature="0" /><path
           id="path322"
           style="fill:none;stroke:#000000;stroke-width:9.05556011;stroke-linecap:square;stroke-linejoin:round;stroke-miterlimit:10;stroke-opacity:1;stroke-dasharray:none"
           d="m 12147.2,7002.47 543.332,0 0,190.164 -543.332,0 0,-190.164 z"
           inkscape:connector-curvature="0" /><g
           transform="scale(9.05556,9.05556)"
           id="g324"><text
   id="text326"
   transform="matrix(1,0,0,-1,1425.41,773.279)"><tspan
     id="tspan328"
     sodipodi:role="line"
     y="0"
     x="0 23.217844 38.012802 55.795795 77.153526 87.436409 101.7776 122.12418 139.90717"
     style="font-size:30px;font-variant:normal;font-weight:normal;writing-mode:lr-tb;fill:#000000;fill-opacity:1;fill-rule:nonzero;stroke:none;font-family:Arial;-inkscape-font-specification:Arial">Architect</tspan></text>



</g><path
           id="path330"
           style="fill:#c3cc00;fill-opacity:1;fill-rule:nonzero;stroke:none"
           d="m 12147.2,6603.74 543.332,0 0,190.164 -543.332,0 0,-190.164 z"
           inkscape:connector-curvature="0" /><path
           id="path332"
           style="fill:none;stroke:#000000;stroke-width:9.05556011;stroke-linecap:square;stroke-linejoin:round;stroke-miterlimit:10;stroke-opacity:1;stroke-dasharray:none"
           d="m 12147.2,6603.74 543.332,0 0,190.164 -543.332,0 0,-190.164 z"
           inkscape:connector-curvature="0" /><g
           transform="scale(9.05556,9.05556)"
           id="g334"><text
   id="text336"
   transform="matrix(1,0,0,-1,1425.41,729.248)"><tspan
     id="tspan338"
     sodipodi:role="line"
     y="0"
     x="0 22.866255 44.22356 54.506874 64.790184 86.264793 106.61137"
     style="font-size:30px;font-variant:normal;font-weight:normal;writing-mode:lr-tb;fill:#000000;fill-opacity:1;fill-rule:nonzero;stroke:none;font-family:Arial;-inkscape-font-specification:Arial">Builder</tspan></text>



</g></g></g></g></svg>