<?xml version="1.0" encoding="UTF-8" standalone="no"?>
<!-- Created with Inkscape (http://www.inkscape.org/) -->

<svg
   xmlns:dc="http://purl.org/dc/elements/1.1/"
   xmlns:cc="http://creativecommons.org/ns#"
   xmlns:rdf="http://www.w3.org/1999/02/22-rdf-syntax-ns#"
   xmlns:svg="http://www.w3.org/2000/svg"
   xmlns="http://www.w3.org/2000/svg"
   xmlns:sodipodi="http://sodipodi.sourceforge.net/DTD/sodipodi-0.dtd"
   xmlns:inkscape="http://www.inkscape.org/namespaces/inkscape"
   width="1227.1212"
   height="391.94775"
   id="svg8480"
   version="1.1"
   inkscape:version="0.48.3.1 r9886"
   sodipodi:docname="cdfDiff.svg">
  <defs
     id="defs8482">
    <clipPath
       id="clipPath8618"
       clipPathUnits="userSpaceOnUse">
      <path
         id="path8620"
         d="m 1559.17,3237.5 9300.03,0 0,-2853.332 -9300.03,0 0,2853.332 z"
         inkscape:connector-curvature="0" />
    </clipPath>
  </defs>
  <sodipodi:namedview
     id="base"
     pagecolor="#ffffff"
     bordercolor="#666666"
     borderopacity="1.0"
     inkscape:pageopacity="0.0"
     inkscape:pageshadow="2"
     inkscape:zoom="0.7"
     inkscape:cx="885.53227"
     inkscape:cy="-38.646627"
     inkscape:document-units="px"
     inkscape:current-layer="g8498"
     showgrid="false"
     inkscape:window-width="1855"
     inkscape:window-height="1176"
     inkscape:window-x="65"
     inkscape:window-y="313"
     inkscape:window-maximized="1"
     fit-margin-top="0"
     fit-margin-left="0"
     fit-margin-right="0"
     fit-margin-bottom="0" />
  <metadata
     id="metadata8485">
    <rdf:RDF>
      <cc:Work
         rdf:about="">
        <dc:format>image/svg+xml</dc:format>
        <dc:type
           rdf:resource="http://purl.org/dc/dcmitype/StillImage" />
        <dc:title />
      </cc:Work>
    </rdf:RDF>
  </metadata>
  <g
     inkscape:label="Layer 1"
     inkscape:groupmode="layer"
     id="layer1"
     transform="translate(203.88732,-71.50951)">
    <g
       transform="matrix(1.25,0,0,-1.25,-340.80357,482.54076)"
       inkscape:label="ink_ext_XXXXXX"
       id="g8496">
      <g
         transform="scale(0.1,0.1)"
         id="g8498">
        <path
           id="path8506"
           style="fill:none;stroke:#000000;stroke-width:25;stroke-linecap:butt;stroke-linejoin:round;stroke-miterlimit:10;stroke-opacity:1;stroke-dasharray:none"
           d="m 1559.17,385 9299.13,0"
           inkscape:connector-curvature="0" />
        <path
           id="path8508"
           style="fill:none;stroke:#000000;stroke-width:25;stroke-linecap:butt;stroke-linejoin:round;stroke-miterlimit:10;stroke-opacity:1;stroke-dasharray:none"
           d="m 1559.17,385 0,2852.5"
           inkscape:connector-curvature="0" />
        <path
           id="path8510"
           style="fill:none;stroke:#000000;stroke-width:25;stroke-linecap:butt;stroke-linejoin:round;stroke-miterlimit:10;stroke-opacity:1;stroke-dasharray:none"
           d="m 1559.17,385 0,93.332"
           inkscape:connector-curvature="0" />
        <path
           id="path8518"
           style="fill:none;stroke:#000000;stroke-width:25;stroke-linecap:butt;stroke-linejoin:round;stroke-miterlimit:10;stroke-opacity:1;stroke-dasharray:none"
           d="m 3109.17,385 0,93.332"
           inkscape:connector-curvature="0" />
        <g
           transform="scale(10,10)"
           id="g8520">
          <text
             id="text8522"
             transform="matrix(1,0,0,-1,303.417,15.6668)">
            <tspan
               id="tspan8524"
               y="0"
               x="0"
               style="font-size:25px;font-variant:normal;font-weight:bold;writing-mode:lr-tb;fill:#000000;fill-opacity:1;fill-rule:nonzero;stroke:none;font-family:Courier 10 Pitch;-inkscape-font-specification:Courier-Bold">0</tspan>
          </text>
        </g>
        <path
           id="path8526"
           style="fill:none;stroke:#000000;stroke-width:25;stroke-linecap:butt;stroke-linejoin:round;stroke-miterlimit:10;stroke-opacity:1;stroke-dasharray:none"
           d="m 4659.17,385 0,93.332"
           inkscape:connector-curvature="0" />
        <g
           transform="scale(10,10)"
           id="g8528">
          <text
             id="text8530"
             transform="matrix(1,0,0,-1,443.417,15.6668)">
            <tspan
               id="tspan8532"
               sodipodi:role="line"
               y="0"
               x="0 15 30"
               style="font-size:25px;font-variant:normal;font-weight:bold;writing-mode:lr-tb;fill:#000000;fill-opacity:1;fill-rule:nonzero;stroke:none;font-family:Courier 10 Pitch;-inkscape-font-specification:Courier-Bold">0.2</tspan>
          </text>
        </g>
        <path
           id="path8534"
           style="fill:none;stroke:#000000;stroke-width:25;stroke-linecap:butt;stroke-linejoin:round;stroke-miterlimit:10;stroke-opacity:1;stroke-dasharray:none"
           d="m 6209.17,385 0,93.332"
           inkscape:connector-curvature="0" />
        <g
           transform="scale(10,10)"
           id="g8536">
          <text
             id="text8538"
             transform="matrix(1,0,0,-1,598.417,15.6668)">
            <tspan
               id="tspan8540"
               sodipodi:role="line"
               y="0"
               x="0 15 30"
               style="font-size:25px;font-variant:normal;font-weight:bold;writing-mode:lr-tb;fill:#000000;fill-opacity:1;fill-rule:nonzero;stroke:none;font-family:Courier 10 Pitch;-inkscape-font-specification:Courier-Bold">0.4</tspan>
          </text>
        </g>
        <path
           id="path8542"
           style="fill:none;stroke:#000000;stroke-width:25;stroke-linecap:butt;stroke-linejoin:round;stroke-miterlimit:10;stroke-opacity:1;stroke-dasharray:none"
           d="m 7758.33,385 0,93.332"
           inkscape:connector-curvature="0" />
        <g
           transform="scale(10,10)"
           id="g8544">
          <text
             id="text8546"
             transform="matrix(1,0,0,-1,753.333,15.6668)">
            <tspan
               id="tspan8548"
               sodipodi:role="line"
               y="0"
               x="0 15 30"
               style="font-size:25px;font-variant:normal;font-weight:bold;writing-mode:lr-tb;fill:#000000;fill-opacity:1;fill-rule:nonzero;stroke:none;font-family:Courier 10 Pitch;-inkscape-font-specification:Courier-Bold">0.6</tspan>
          </text>
        </g>
        <path
           id="path8550"
           style="fill:none;stroke:#000000;stroke-width:25;stroke-linecap:butt;stroke-linejoin:round;stroke-miterlimit:10;stroke-opacity:1;stroke-dasharray:none"
           d="m 9308.34,385 0,93.332"
           inkscape:connector-curvature="0" />
        <g
           transform="scale(10,10)"
           id="g8552">
          <text
             id="text8554"
             transform="matrix(1,0,0,-1,908.334,15.6668)">
            <tspan
               id="tspan8556"
               sodipodi:role="line"
               y="0"
               x="0 15 30"
               style="font-size:25px;font-variant:normal;font-weight:bold;writing-mode:lr-tb;fill:#000000;fill-opacity:1;fill-rule:nonzero;stroke:none;font-family:Courier 10 Pitch;-inkscape-font-specification:Courier-Bold">0.8</tspan>
          </text>
        </g>
        <path
           id="path8558"
           style="fill:none;stroke:#000000;stroke-width:25;stroke-linecap:butt;stroke-linejoin:round;stroke-miterlimit:10;stroke-opacity:1;stroke-dasharray:none"
           d="m 10858.3,385 0,93.332"
           inkscape:connector-curvature="0" />
        <g
           transform="scale(10,10)"
           id="g8560">
          <text
             id="text8562"
             transform="matrix(1,0,0,-1,1078.33,15.6668)">
            <tspan
               id="tspan8564"
               y="0"
               x="0"
               style="font-size:25px;font-variant:normal;font-weight:bold;writing-mode:lr-tb;fill:#000000;fill-opacity:1;fill-rule:nonzero;stroke:none;font-family:Courier 10 Pitch;-inkscape-font-specification:Courier-Bold">1</tspan>
          </text>
        </g>
        <path
           id="path8566"
           style="fill:none;stroke:#000000;stroke-width:25;stroke-linecap:butt;stroke-linejoin:round;stroke-miterlimit:10;stroke-opacity:1;stroke-dasharray:none"
           d="m 1559.17,385 93.33,0"
           inkscape:connector-curvature="0" />
        <g
           transform="scale(10,10)"
           id="g8568">
          <text
             id="text8570"
             transform="matrix(1,0,0,-1,138.083,30.5)">
            <tspan
               id="tspan8572"
               y="0"
               x="0"
               style="font-size:25px;font-variant:normal;font-weight:bold;writing-mode:lr-tb;fill:#000000;fill-opacity:1;fill-rule:nonzero;stroke:none;font-family:Courier 10 Pitch;-inkscape-font-specification:Courier-Bold">0</tspan>
          </text>
        </g>
        <path
           id="path8574"
           style="fill:none;stroke:#000000;stroke-width:25;stroke-linecap:butt;stroke-linejoin:round;stroke-miterlimit:10;stroke-opacity:1;stroke-dasharray:none"
           d="m 1559.17,950 93.33,0"
           inkscape:connector-curvature="0" />
        <g
           transform="scale(10,10)"
           id="g8576">
          <text
             id="text8578"
             transform="matrix(1,0,0,-1,108.083,87)">
            <tspan
               id="tspan8580"
               sodipodi:role="line"
               y="0"
               x="0 15 30"
               style="font-size:25px;font-variant:normal;font-weight:bold;writing-mode:lr-tb;fill:#000000;fill-opacity:1;fill-rule:nonzero;stroke:none;font-family:Courier 10 Pitch;-inkscape-font-specification:Courier-Bold">0.2</tspan>
          </text>
        </g>
        <path
           id="path8582"
           style="fill:none;stroke:#000000;stroke-width:25;stroke-linecap:butt;stroke-linejoin:round;stroke-miterlimit:10;stroke-opacity:1;stroke-dasharray:none"
           d="m 1559.17,1515 93.33,0"
           inkscape:connector-curvature="0" />
        <g
           transform="scale(10,10)"
           id="g8584">
          <text
             id="text8586"
             transform="matrix(1,0,0,-1,108.083,143.5)">
            <tspan
               id="tspan8588"
               sodipodi:role="line"
               y="0"
               x="0 15 30"
               style="font-size:25px;font-variant:normal;font-weight:bold;writing-mode:lr-tb;fill:#000000;fill-opacity:1;fill-rule:nonzero;stroke:none;font-family:Courier 10 Pitch;-inkscape-font-specification:Courier-Bold">0.4</tspan>
          </text>
        </g>
        <path
           id="path8590"
           style="fill:none;stroke:#000000;stroke-width:25;stroke-linecap:butt;stroke-linejoin:round;stroke-miterlimit:10;stroke-opacity:1;stroke-dasharray:none"
           d="m 1559.17,2080 93.33,0"
           inkscape:connector-curvature="0" />
        <g
           transform="scale(10,10)"
           id="g8592">
          <text
             id="text8594"
             transform="matrix(1,0,0,-1,108.083,200)">
            <tspan
               id="tspan8596"
               sodipodi:role="line"
               y="0"
               x="0 15 30"
               style="font-size:25px;font-variant:normal;font-weight:bold;writing-mode:lr-tb;fill:#000000;fill-opacity:1;fill-rule:nonzero;stroke:none;font-family:Courier 10 Pitch;-inkscape-font-specification:Courier-Bold">0.6</tspan>
          </text>
        </g>
        <path
           id="path8598"
           style="fill:none;stroke:#000000;stroke-width:25;stroke-linecap:butt;stroke-linejoin:round;stroke-miterlimit:10;stroke-opacity:1;stroke-dasharray:none"
           d="m 1559.17,2645 93.33,0"
           inkscape:connector-curvature="0" />
        <g
           transform="scale(10,10)"
           id="g8600">
          <text
             id="text8602"
             transform="matrix(1,0,0,-1,108.083,256.5)">
            <tspan
               id="tspan8604"
               sodipodi:role="line"
               y="0"
               x="0 15 30"
               style="font-size:25px;font-variant:normal;font-weight:bold;writing-mode:lr-tb;fill:#000000;fill-opacity:1;fill-rule:nonzero;stroke:none;font-family:Courier 10 Pitch;-inkscape-font-specification:Courier-Bold">0.8</tspan>
          </text>
        </g>
        <path
           id="path8606"
           style="fill:none;stroke:#000000;stroke-width:25;stroke-linecap:butt;stroke-linejoin:round;stroke-miterlimit:10;stroke-opacity:1;stroke-dasharray:none"
           d="m 1559.17,3210 93.33,0"
           inkscape:connector-curvature="0" />
        <g
           transform="scale(10,10)"
           id="g8608">
          <text
             id="text8610"
             transform="matrix(1,0,0,-1,138.083,313)">
            <tspan
               id="tspan8612"
               y="0"
               x="0"
               style="font-size:25px;font-variant:normal;font-weight:bold;writing-mode:lr-tb;fill:#000000;fill-opacity:1;fill-rule:nonzero;stroke:none;font-family:Courier 10 Pitch;-inkscape-font-specification:Courier-Bold">1</tspan>
          </text>
        </g>
        <g
           id="g8614">
          <g
             clip-path="url(#clipPath8618)"
             id="g8616">
            <path
               id="path8622"
               style="fill:none;stroke:#ff3333;stroke-width:20;stroke-linecap:butt;stroke-linejoin:round;stroke-miterlimit:10;stroke-opacity:1;stroke-dasharray:none"
               d="m 8540.84,3081.67 8.33,1.66 7.5,0.84 7.5,1.66 7.5,1.67 8.33,1.67 7.5,1.66 7.5,0.84 8.34,1.66 7.5,1.67 7.5,1.67 8.33,0.83 7.5,1.67 7.5,1.66 7.5,0.84 8.33,1.66 7.5,0.84 7.5,1.66 8.34,1.67 7.5,0.83 7.5,1.67 8.33,0.83 7.5,1.67 7.5,0.83 7.5,1.67 8.33,0.83 7.5,1.67 7.5,0.83 8.34,0.84 7.5,1.66 7.5,0.84 8.33,1.66 7.5,0.84 7.5,0.83 7.5,1.67 8.33,0.83 7.5,0.83 7.5,0.84 8.34,1.66 7.5,0.84 7.5,0.83 8.33,0.83 7.5,1.67 7.5,0.83 7.5,0.84 8.33,0.83 7.5,0.83 7.5,0.84 8.34,1.66 7.5,0.84 7.5,0.83 8.33,0.83 7.5,0.84 7.5,0.83 7.5,0.83 8.33,0.84 7.5,0.83 7.5,0.83 8.34,0.84 7.5,0.83 7.5,0.83 7.5,0.84 8.33,0.83 7.5,0.83 7.5,0.84 8.33,0.83 7.5,0.83 7.5,0.84 8.34,0.83 7.5,0.83 7.5,0 7.5,0.84 8.33,0.83 7.5,0.83 7.5,0.84 8.33,0.83 7.5,0 7.5,0.83 8.34,0.84 7.5,0.83 7.5,0.83 7.5,0 8.33,0.84 7.5,0.83 7.5,0.83 8.33,0 7.5,0.84 7.5,0.83 8.34,0 7.5,0.83 7.5,0.84 7.5,0.83 8.33,0 7.5,0.83 7.5,0.84 8.33,0 7.5,0.83 7.5,0 8.34,0.83 7.5,0.84 7.5,0 7.5,0.83 8.33,0 7.5,0.83 7.5,0.84 8.33,0 7.5,0.83 7.5,0 8.34,0.83 7.5,0 7.5,0.84 7.5,0 8.33,0.83 7.5,0 7.5,0.83 8.33,0 7.5,0.84 7.5,0 8.34,0.83 7.5,0 7.5,0.83 7.5,0 8.33,0.84 15,0 8.33,0.83 7.5,0 7.5,0.83 7.5,0 8.34,0.84 15,0 8.33,0.83 15,0 8.33,0.83 7.5,0 7.5,0.84 15.84,0 7.5,0.83 15.83,0 7.5,0.83 15.83,0 7.5,0.84 23.34,0 7.5,0.83 15.83,0 7.5,0.83 23.33,0 7.5,0.84 15.84,0 7.5,0.83 23.33,0 7.5,0.83 30.83,0 8.34,0.84 23.33,0 7.5,0.83 30.83,0 7.5,0.83 39.17,0 7.5,0.84 30.83,0 8.3,0.83 45.9,0 8.3,0.83 46.7,0 7.5,0.84 54.1,0 7.5,0.83 70,0 7.5,0.83 77.5,0 8.4,0.84 108.3,0 7.5,0.83 139.2,0 8.3,0.83 232.5,0 7.5,0.84 15.8,0"
               inkscape:connector-curvature="0" />
            <path
               id="path8624"
               style="fill:none;stroke:#ff3333;stroke-width:20;stroke-linecap:butt;stroke-linejoin:round;stroke-miterlimit:10;stroke-opacity:1;stroke-dasharray:none"
               d="m 6224.17,1755 7.5,6.67 8.33,6.66 7.5,5.84 7.5,6.66 8.33,6.67 7.5,6.67 7.5,6.66 7.5,5.84 8.34,6.66 7.5,6.67 7.5,6.67 8.33,6.66 7.5,6.67 7.5,5.83 8.33,6.67 7.5,6.67 7.5,6.66 7.5,6.67 8.34,5.83 7.5,6.67 7.5,6.67 8.33,6.66 7.5,6.67 7.5,5.83 8.33,6.67 7.5,6.67 7.5,6.66 7.5,5.84 8.34,6.66 7.5,6.67 7.5,6.67 8.33,5.83 7.5,6.67 7.5,6.66 8.33,6.67 7.5,5.83 7.5,6.67 7.5,6.67 8.34,5.83 7.5,6.67 7.5,6.66 8.33,5.84 7.5,6.66 7.5,6.67 8.33,5.83 7.5,6.67 7.5,5.83 7.5,6.67 8.34,6.67 7.5,5.83 7.5,6.67 8.33,5.83 7.5,6.67 7.5,5.83 8.33,6.67 7.5,6.66 7.5,5.84 7.5,5.83 8.34,6.67 7.5,5.83 7.5,6.67 8.33,5.83 7.5,6.67 7.5,5.83 7.5,6.67 8.33,5.83 7.5,5.83 7.5,6.67 8.34,5.83 7.5,5.84 7.5,6.66 8.33,5.84 7.5,5.83 7.5,5.83 7.5,6.67 8.33,5.83 7.5,5.84 7.5,5.83 8.34,5.83 7.5,6.67 7.5,5.83 8.33,5.84 7.5,5.83 7.5,5.83 7.5,5.84 8.33,5.83 7.5,5.83 7.5,5.84 8.34,5.83 7.5,5.83 7.5,5.84 8.33,5.83 7.5,5.83 7.5,5.84 7.5,5.83 8.33,5 7.5,5.83 7.5,5.84 8.34,5.83 7.5,5.83 7.5,5 8.33,5.84 7.5,5.83 7.5,5.83 7.5,5 8.33,5.84 7.5,5 7.5,5.83 8.34,5.83 7.5,5 7.5,5.84 8.33,5 7.5,5.83 7.5,5 7.5,5.83 8.33,5 7.5,5 7.5,5.84 8.34,5 7.5,5 7.5,5.83 7.5,5 8.33,5 7.5,5 7.5,5.83 8.33,5 7.5,5 7.5,5 8.34,5 7.5,5 7.5,5 7.5,5 8.33,5 7.5,5 7.5,5 8.33,5 7.5,5 7.5,5 8.34,5 7.5,5 7.5,4.17 7.5,5 8.33,5 7.5,5 7.5,4.17 8.33,5 7.5,5 7.5,4.16 8.34,5 7.5,4.17 7.5,5 7.5,4.17 8.33,5 7.5,4.16 7.5,5 8.33,4.17 7.5,4.17 7.5,5 8.34,4.16 7.5,4.17 7.5,5 7.5,4.17 8.33,4.16 7.5,4.17 7.5,4.17 8.33,5 7.5,4.16 7.5,4.17 8.34,4.17 7.5,4.16 7.5,4.17 7.5,4.17 8.33,4.16 7.5,4.17 7.5,3.33 8.33,4.17 7.5,4.17 7.5,4.16 7.5,4.17 8.34,3.33 7.5,4.17 7.5,4.17 8.33,3.33 7.5,4.17 7.5,4.16 8.33,3.34 7.5,4.16 7.5,3.34 7.5,4.16 8.34,3.34 7.5,4.16 7.5,3.34 8.33,4.16 7.5,3.34 7.5,3.33 8.33,4.17 7.5,3.33 7.5,3.33 7.5,3.34 8.34,3.33 7.5,4.17 7.5,3.33 8.33,3.33 7.5,3.34 7.5,3.33 8.33,3.33 7.5,3.34 7.5,3.33 7.5,3.33 8.34,3.34 7.5,3.33 7.5,3.33 8.33,3.34 7.5,2.5 7.5,3.33 8.33,3.33 7.5,3.34 7.5,2.5 7.5,3.33 8.34,3.33 7.5,2.5 7.5,3.34 8.33,3.33 7.5,2.5 7.5,3.33 8.33,2.5 7.5,3.34 7.5,2.5 7.5,3.33 8.34,2.5 7.5,2.5 7.5,3.33 8.33,2.5 7.5,2.5 7.5,3.34 8.33,2.5 7.5,2.5 7.5,2.5 7.5,2.5 8.34,3.33 7.5,2.5 7.5,2.5 8.33,2.5 7.5,2.5 7.5,2.5 7.5,2.5 8.33,2.5 7.5,2.5 7.5,2.5 8.34,2.5 7.5,2.5 7.5,2.5 8.33,1.67 7.5,2.5 7.5,2.5 7.5,2.5 8.33,2.5 7.5,1.66 7.5,2.5 8.34,2.5 7.5,1.67 7.5,2.5 8.33,2.5 7.5,1.67 7.5,2.5 7.5,1.66 8.33,2.5 7.5,1.67 7.5,2.5 8.34,1.67 7.5,2.5 7.5,1.66 8.33,2.5 7.5,1.67 7.5,1.67 7.5,2.5 8.33,1.66 7.5,1.67 7.5,1.67 8.34,2.5 7.5,1.66 7.5,1.67 8.33,1.67 7.5,2.5 7.5,1.66 7.5,1.67 8.33,1.67 7.5,1.66 7.5,1.67 8.34,1.67 7.5,1.66 7.5,1.67 8.33,1.67 7.5,1.66 7.5,1.67 7.5,1.67 8.33,1.66 7.5,1.67 7.5,1.67"
               inkscape:connector-curvature="0" />
            <path
               id="path8626"
               style="fill:none;stroke:#ff3333;stroke-width:20;stroke-linecap:butt;stroke-linejoin:round;stroke-miterlimit:10;stroke-opacity:1;stroke-dasharray:none"
               d="m 3907.5,494.168 7.5,1.664 7.5,1.668 8.33,0.832 7.5,1.668 7.5,1.668 8.34,1.664 7.5,0.836 7.5,1.664 8.33,1.668 7.5,1.668 7.5,1.664 7.5,0.836 8.33,1.664 7.5,1.668 7.5,1.668 8.34,1.664 7.5,1.668 7.5,1.668 8.33,1.664 7.5,1.668 7.5,1.668 7.5,1.664 8.33,1.668 7.5,1.668 7.5,1.664 8.34,1.668 7.5,1.668 7.5,1.664 8.33,2.5 7.5,1.668 7.5,1.668 7.5,1.664 8.33,1.668 7.5,2.5 7.5,1.668 8.34,1.664 7.5,2.5 7.5,1.668 8.33,1.668 7.5,2.5 7.5,1.664 7.5,2.5 8.33,1.668 7.5,2.5 7.5,1.668 8.34,2.5 7.5,1.664 7.5,2.5 8.33,1.668 7.5,2.5 7.5,1.668 7.5,2.5 8.33,2.5 7.5,2.5 7.5,1.664 8.34,2.5 7.5,2.5 7.5,2.5 7.5,1.668 8.33,2.5 7.5,2.5 7.5,2.5 8.33,2.5 7.5,2.5 7.5,2.5 8.34,2.5 7.5,2.5 7.5,2.5 7.5,2.5 8.33,2.5 7.5,2.5 7.5,2.5 8.33,2.5 7.5,3.332 7.5,2.5 8.34,2.5 7.5,2.5 7.5,2.5 7.5,3.336 8.33,2.5 7.5,2.5 7.5,3.332 8.33,2.5 7.5,3.332 7.5,2.5 8.34,3.336 7.5,2.5 7.5,3.332 7.5,2.5 8.33,3.332 7.5,2.5 7.5,3.336 8.33,3.332 7.5,2.5 7.5,3.332 8.34,3.336 7.5,3.332 7.5,2.5 7.5,3.332 8.33,3.336 7.5,3.332 7.5,3.332 8.33,3.336 7.5,3.332 7.5,3.332 8.34,3.336 7.5,3.332 7.5,3.332 7.5,3.336 8.33,3.332 7.5,3.332 7.5,3.336 8.33,3.332 7.5,4.168 7.5,3.332 8.34,3.332 7.5,3.336 7.5,4.164 7.5,3.336 8.33,4.164 7.5,3.336 7.5,3.332 8.33,4.168 7.5,3.332 7.5,4.168 7.5,3.332 8.34,4.168 7.5,4.164 7.5,3.336 8.33,4.164 7.5,4.168 7.5,3.332 8.33,4.168 7.5,4.168 7.5,4.164 7.5,3.336 8.34,4.164 7.5,4.168 7.5,4.168 8.33,4.164 7.5,4.168 7.5,4.168 8.33,4.164 7.5,4.168 7.5,4.168 7.5,4.164 8.34,4.168 7.5,4.168 7.5,5 8.33,4.164 7.5,4.168 7.5,4.168 8.33,5 7.5,4.164 7.5,4.168 7.5,5 8.34,4.168 7.5,4.164 7.5,5 8.33,4.168 7.5,5 7.5,4.168 8.33,5 7.5,4.164 7.5,5 7.5,5 8.34,4.168 7.5,5 7.5,5 8.33,5 7.5,4.17 7.5,5 8.33,5 7.5,5 7.5,5 7.5,4.16 8.34,5 7.5,5 7.5,5 8.33,5 7.5,5 7.5,5 7.5,5 8.33,5.84 7.5,5 7.5,5 8.34,5 7.5,5 7.5,5 8.33,5.83 7.5,5 7.5,5 7.5,5 8.33,5.83 7.5,5 7.5,5.84 8.34,5 7.5,5 7.5,5.83 8.33,5 7.5,5.83 7.5,5 7.5,5.84 8.33,5 7.5,5.83 7.5,5.83 8.34,5 7.5,5.84 7.5,5.83 8.33,5 7.5,5.83 7.5,5.84 7.5,5.83 8.33,5 7.5,5.83 7.5,5.84 8.34,5.83 7.5,5.83 7.5,5.84 8.33,5.83 7.5,5 7.5,5.83 7.5,5.84 8.33,5.83 7.5,5.83 7.5,5.84 8.34,5.83 7.5,5.83 7.5,6.67 8.33,5.83 7.5,5.84 7.5,5.83 7.5,5.83 8.33,5.84 7.5,5.83 7.5,6.67 8.34,5.83 7.5,5.83 7.5,5.84 7.5,6.66 8.33,5.84 7.5,5.83 7.5,6.67 8.33,5.83 7.5,5.83 7.5,6.67 8.34,5.83 7.5,5.84 7.5,6.66 7.5,5.84 8.33,6.66 7.5,5.84 7.5,5.83 8.33,6.67 7.5,5.83 7.5,6.67 8.34,5.83 7.5,6.67 7.5,5.83 7.5,6.67 8.33,6.66 7.5,5.84 7.5,6.66 8.33,5.84 7.5,6.66 7.5,6.67 8.34,5.83 7.5,6.67 7.5,5.83 7.5,6.67 8.33,6.67 7.5,5.83 7.5,6.67 8.33,6.66 7.5,5.84 7.5,6.66 8.34,6.67 7.5,6.67 7.5,5.83 7.5,6.67 8.33,6.66 7.5,6.67 7.5,5.83 8.33,6.67 7.5,6.67 7.5,6.66 8.34,5.84 7.5,6.66 7.5,6.67 7.5,6.67 8.33,5.83 7.5,6.67 7.5,6.66 8.33,6.67 7.5,6.67 7.5,5.83 8.34,6.67 7.5,6.66 7.5,6.67"
               inkscape:connector-curvature="0" />
            <path
               id="path8628"
               style="fill:none;stroke:#ff3333;stroke-width:20;stroke-linecap:butt;stroke-linejoin:round;stroke-miterlimit:10;stroke-opacity:1;stroke-dasharray:none"
               d="m 1590.83,385.832 77.5,0 7.5,0.836 248.34,0 7.5,0.832 146.66,0 8.34,0.832 108.33,0 7.5,0.836 85.83,0 7.5,0.832 70,0 7.5,0.832 54.17,0 7.5,0.836 46.67,0 7.5,0.832 46.66,0 7.5,0.832 39.17,0 7.5,0.836 30.83,0 8.34,0.832 30.83,0 7.5,0.832 30.83,0 8.34,0.836 23.33,0 7.5,0.832 23.33,0 7.5,0.832 23.34,0 7.5,0.836 23.33,0 7.5,0.832 15.83,0 7.5,0.832 15.84,0 7.5,0.836 23.33,0 7.5,0.832 15.83,0 7.5,0.832 8.34,0 7.5,0.836 15,0 8.33,0.832 15,0 8.33,0.832 7.5,0 7.5,0.836 15.84,0 7.5,0.832 7.5,0 8.33,0.832 15,0 8.33,0.836 7.5,0 7.5,0.832 8.34,0 7.5,0.832 7.5,0 7.5,0.836 8.33,0 7.5,0.832 7.5,0 8.33,0.832 7.5,0 7.5,0.836 8.34,0 7.5,0.832 7.5,0 7.5,0.832 8.33,0.836 7.5,0 7.5,0.832 8.33,0 7.5,0.832 7.5,0 8.34,0.836 7.5,0.832 7.5,0 7.5,0.832 8.33,0.836 7.5,0 7.5,0.832 8.33,0.832 7.5,0 7.5,0.836 8.34,0.832 7.5,0 7.5,0.832 7.5,0.836 8.33,0 7.5,0.832 7.5,0.832 8.33,0.836 7.5,0 7.5,0.832 8.34,0.832 7.5,0.836 7.5,0.832 7.5,0 8.33,0.832 7.5,0.836 7.5,0.832 8.33,0.832 7.5,0.836 7.5,0 7.5,0.832 8.34,0.832 7.5,0.836 7.5,0.832 8.33,0.832 7.5,0.836 7.5,0.832 8.33,0.832 7.5,0.836 7.5,0.832 7.5,0.832 8.34,0.836 7.5,0.832 7.5,0.832 8.33,0.836 7.5,0.832 7.5,0.832 8.33,0.836 7.5,0.832 7.5,0.832 7.5,0.836 8.34,1.664 7.5,0.836 7.5,0.832 8.33,0.832 7.5,0.836 7.5,0.832 8.33,1.668 7.5,0.832 7.5,0.832 7.5,0.836 8.34,1.664 7.5,0.836 7.5,0.832 8.33,0.832 7.5,1.668 7.5,0.832 8.33,0.836 7.5,1.664 7.5,0.836 7.5,1.664 8.34,0.836 7.5,0.832 7.5,1.668 8.33,0.832 7.5,1.668 7.5,0.832 8.33,1.668 7.5,0.832 7.5,1.668 7.5,0.832 8.34,1.668 7.5,1.664 7.5,0.836 8.33,1.664 7.5,0.836"
               inkscape:connector-curvature="0" />
            <path
               id="path8630"
               style="fill:none;stroke:#ff3333;stroke-width:20;stroke-linecap:butt;stroke-linejoin:round;stroke-miterlimit:10;stroke-opacity:1;stroke-dasharray:none"
               d="m 1559.17,385.832 31.66,0"
               inkscape:connector-curvature="0" />
          </g>
        </g>
        <flowRoot
           xml:space="preserve"
           id="flowRoot8472"
           style="font-size:28px;font-style:normal;font-variant:normal;font-weight:bold;font-stretch:normal;text-align:start;line-height:125%;letter-spacing:0px;word-spacing:0px;writing-mode:lr-tb;text-anchor:start;fill:#000000;fill-opacity:1;stroke:none;font-family:Courier 10 Pitch;-inkscape-font-specification:Courier 10 Pitch Bold"
           transform="matrix(8,0,0,-8,-1851.8156,1724.5235)"><flowRegion
             id="flowRegion8474"><rect
               id="rect8476"
               width="535.38086"
               height="74.751282"
               x="519.21838"
               y="53.816162"
               style="font-size:28px;font-style:normal;font-variant:normal;font-weight:bold;font-stretch:normal;text-align:start;line-height:125%;writing-mode:lr-tb;text-anchor:start;font-family:Courier 10 Pitch;-inkscape-font-specification:Courier 10 Pitch Bold" /></flowRegion><flowPara
             id="flowPara8478">cdf(0) = 0.01</flowPara></flowRoot>        <path
           style="fill:none;stroke:#000000;stroke-width:8px;stroke-linecap:butt;stroke-linejoin:miter;stroke-opacity:1"
           d="m 3108.7269,531.31273 c 0,444.46712 0,444.46712 0,444.46712"
           id="path8847"
           inkscape:connector-curvature="0" />
      </g>
    </g>
  </g>
</svg>
