<?xml version="1.0" encoding="UTF-8" standalone="no"?>
<!-- Created with Inkscape (http://www.inkscape.org/) -->

<svg
   xmlns:dc="http://purl.org/dc/elements/1.1/"
   xmlns:cc="http://creativecommons.org/ns#"
   xmlns:rdf="http://www.w3.org/1999/02/22-rdf-syntax-ns#"
   xmlns:svg="http://www.w3.org/2000/svg"
   xmlns="http://www.w3.org/2000/svg"
   xmlns:sodipodi="http://sodipodi.sourceforge.net/DTD/sodipodi-0.dtd"
   xmlns:inkscape="http://www.inkscape.org/namespaces/inkscape"
   width="1189.6212"
   height="387.1665"
   id="svg2"
   version="1.1"
   inkscape:version="0.48.3.1 r9886"
   sodipodi:docname="data.svg">
  <defs
     id="defs4">
    <clipPath
       id="clipPath3213"
       clipPathUnits="userSpaceOnUse">
      <path
         id="path3215"
         d="m 1560,3237.5 9299.2,0 0,-2853.332 -9299.2,0 0,2853.332 z"
         inkscape:connector-curvature="0" />
    </clipPath>
    <clipPath
       id="clipPath3147"
       clipPathUnits="userSpaceOnUse">
      <path
         id="path3149"
         d="m 1560,3237.5 9299.2,0 0,-2853.332 -9299.2,0 0,2853.332 z"
         inkscape:connector-curvature="0" />
    </clipPath>
    <clipPath
       id="clipPath3584"
       clipPathUnits="userSpaceOnUse">
      <path
         id="path3586"
         d="m 1560,3237.5 9299.2,0 0,-2853.332 -9299.2,0 0,2853.332 z"
         inkscape:connector-curvature="0" />
    </clipPath>
    <clipPath
       id="clipPath3518"
       clipPathUnits="userSpaceOnUse">
      <path
         id="path3520"
         d="m 1560,3237.5 9299.2,0 0,-2853.332 -9299.2,0 0,2853.332 z"
         inkscape:connector-curvature="0" />
    </clipPath>
    <clipPath
       id="clipPath3955"
       clipPathUnits="userSpaceOnUse">
      <path
         id="path3957"
         d="m 1560,3237.5 9299.2,0 0,-2853.332 -9299.2,0 0,2853.332 z"
         inkscape:connector-curvature="0" />
    </clipPath>
    <clipPath
       id="clipPath3889"
       clipPathUnits="userSpaceOnUse">
      <path
         id="path3891"
         d="m 1560,3237.5 9299.2,0 0,-2853.332 -9299.2,0 0,2853.332 z"
         inkscape:connector-curvature="0" />
    </clipPath>
    <clipPath
       id="clipPath4318"
       clipPathUnits="userSpaceOnUse">
      <path
         id="path4320"
         d="m 1559.17,3237.5 9300.03,0 0,-2853.332 -9300.03,0 0,2853.332 z"
         inkscape:connector-curvature="0" />
    </clipPath>
    <clipPath
       id="clipPath4260"
       clipPathUnits="userSpaceOnUse">
      <path
         id="path4262"
         d="m 1559.17,3237.5 9300.03,0 0,-2853.332 -9300.03,0 0,2853.332 z"
         inkscape:connector-curvature="0" />
    </clipPath>
    <clipPath
       id="clipPath4567"
       clipPathUnits="userSpaceOnUse">
      <path
         id="path4569"
         d="m 1559.17,3237.5 9300.03,0 0,-2853.332 -9300.03,0 0,2853.332 z"
         inkscape:connector-curvature="0" />
    </clipPath>
  </defs>
  <sodipodi:namedview
     id="base"
     pagecolor="#ffffff"
     bordercolor="#666666"
     borderopacity="1.0"
     inkscape:pageopacity="0.0"
     inkscape:pageshadow="2"
     inkscape:zoom="0.70484765"
     inkscape:cx="437.29245"
     inkscape:cy="-227.5216"
     inkscape:document-units="px"
     inkscape:current-layer="g4108"
     showgrid="false"
     inkscape:window-width="1855"
     inkscape:window-height="1176"
     inkscape:window-x="65"
     inkscape:window-y="313"
     inkscape:window-maximized="1"
     fit-margin-top="0"
     fit-margin-left="0"
     fit-margin-right="0"
     fit-margin-bottom="0" />
  <metadata
     id="metadata7">
    <rdf:RDF>
      <cc:Work
         rdf:about="">
        <dc:format>image/svg+xml</dc:format>
        <dc:type
           rdf:resource="http://purl.org/dc/dcmitype/StillImage" />
        <dc:title />
      </cc:Work>
    </rdf:RDF>
  </metadata>
  <g
     inkscape:label="Layer 1"
     inkscape:groupmode="layer"
     id="layer1"
     transform="translate(6858.0325,-71.32692)">
    <g
       transform="matrix(1.25,0,0,-1.25,-7090.8036,543.96932)"
       inkscape:label="ink_ext_XXXXXX"
       id="g2993">
      <g
         transform="scale(0.1,0.1)"
         id="g2995">
        <g
           transform="matrix(10,0,0,10,105.68507,482.98528)"
           inkscape:label="ink_ext_XXXXXX"
           id="g3364">
          <g
             transform="scale(0.1,0.1)"
             id="g3366">
            <g
               transform="matrix(10,0,0,10,361.15387,48.153917)"
               inkscape:label="ink_ext_XXXXXX"
               id="g4106">
              <g
                 transform="scale(0.1,0.1)"
                 id="g4108">
                <g
                   id="g4645">
                  <path
                     inkscape:connector-curvature="0"
                     d="m 1559.17,385 9299.13,0"
                     style="fill:none;stroke:#000000;stroke-width:25;stroke-linecap:butt;stroke-linejoin:round;stroke-miterlimit:10;stroke-opacity:1;stroke-dasharray:none"
                     id="path4116" />
                  <path
                     inkscape:connector-curvature="0"
                     d="m 1559.17,385 0,2852.5"
                     style="fill:none;stroke:#000000;stroke-width:25;stroke-linecap:butt;stroke-linejoin:round;stroke-miterlimit:10;stroke-opacity:1;stroke-dasharray:none"
                     id="path4118" />
                  <path
                     inkscape:connector-curvature="0"
                     d="m 1559.17,385 0,93.332"
                     style="fill:none;stroke:#000000;stroke-width:25;stroke-linecap:butt;stroke-linejoin:round;stroke-miterlimit:10;stroke-opacity:1;stroke-dasharray:none"
                     id="path4120" />
                  <path
                     inkscape:connector-curvature="0"
                     d="m 3109.17,385 0,93.332"
                     style="fill:none;stroke:#000000;stroke-width:25;stroke-linecap:butt;stroke-linejoin:round;stroke-miterlimit:10;stroke-opacity:1;stroke-dasharray:none"
                     id="path4128" />
                  <g
                     id="g4130"
                     transform="scale(10,10)">
                    <text
                       transform="matrix(1,0,0,-1,303.417,15.6668)"
                       id="text4132">
                      <tspan
                         style="font-size:25px;font-variant:normal;font-weight:bold;writing-mode:lr-tb;fill:#000000;fill-opacity:1;fill-rule:nonzero;stroke:none;font-family:Courier 10 Pitch;-inkscape-font-specification:Courier-Bold"
                         x="0"
                         y="0"
                         id="tspan4134">0</tspan>
                    </text>
                  </g>
                  <path
                     inkscape:connector-curvature="0"
                     d="m 4659.17,385 0,93.332"
                     style="fill:none;stroke:#000000;stroke-width:25;stroke-linecap:butt;stroke-linejoin:round;stroke-miterlimit:10;stroke-opacity:1;stroke-dasharray:none"
                     id="path4136" />
                  <g
                     id="g4138"
                     transform="scale(10,10)">
                    <text
                       transform="matrix(1,0,0,-1,443.417,15.6668)"
                       id="text4140">
                      <tspan
                         style="font-size:25px;font-variant:normal;font-weight:bold;writing-mode:lr-tb;fill:#000000;fill-opacity:1;fill-rule:nonzero;stroke:none;font-family:Courier 10 Pitch;-inkscape-font-specification:Courier-Bold"
                         x="0 15 30"
                         y="0"
                         sodipodi:role="line"
                         id="tspan4142">0.2</tspan>
                    </text>
                  </g>
                  <path
                     inkscape:connector-curvature="0"
                     d="m 6209.17,385 0,93.332"
                     style="fill:none;stroke:#000000;stroke-width:25;stroke-linecap:butt;stroke-linejoin:round;stroke-miterlimit:10;stroke-opacity:1;stroke-dasharray:none"
                     id="path4144" />
                  <g
                     id="g4146"
                     transform="scale(10,10)">
                    <text
                       transform="matrix(1,0,0,-1,598.417,15.6668)"
                       id="text4148">
                      <tspan
                         style="font-size:25px;font-variant:normal;font-weight:bold;writing-mode:lr-tb;fill:#000000;fill-opacity:1;fill-rule:nonzero;stroke:none;font-family:Courier 10 Pitch;-inkscape-font-specification:Courier-Bold"
                         x="0 15 30"
                         y="0"
                         sodipodi:role="line"
                         id="tspan4150">0.4</tspan>
                    </text>
                  </g>
                  <path
                     inkscape:connector-curvature="0"
                     d="m 7758.33,385 0,93.332"
                     style="fill:none;stroke:#000000;stroke-width:25;stroke-linecap:butt;stroke-linejoin:round;stroke-miterlimit:10;stroke-opacity:1;stroke-dasharray:none"
                     id="path4152" />
                  <g
                     id="g4154"
                     transform="scale(10,10)">
                    <text
                       transform="matrix(1,0,0,-1,753.333,15.6668)"
                       id="text4156">
                      <tspan
                         style="font-size:25px;font-variant:normal;font-weight:bold;writing-mode:lr-tb;fill:#000000;fill-opacity:1;fill-rule:nonzero;stroke:none;font-family:Courier 10 Pitch;-inkscape-font-specification:Courier-Bold"
                         x="0 15 30"
                         y="0"
                         sodipodi:role="line"
                         id="tspan4158">0.6</tspan>
                    </text>
                  </g>
                  <path
                     inkscape:connector-curvature="0"
                     d="m 9308.34,385 0,93.332"
                     style="fill:none;stroke:#000000;stroke-width:25;stroke-linecap:butt;stroke-linejoin:round;stroke-miterlimit:10;stroke-opacity:1;stroke-dasharray:none"
                     id="path4160" />
                  <g
                     id="g4162"
                     transform="scale(10,10)">
                    <text
                       transform="matrix(1,0,0,-1,908.334,15.6668)"
                       id="text4164">
                      <tspan
                         style="font-size:25px;font-variant:normal;font-weight:bold;writing-mode:lr-tb;fill:#000000;fill-opacity:1;fill-rule:nonzero;stroke:none;font-family:Courier 10 Pitch;-inkscape-font-specification:Courier-Bold"
                         x="0 15 30"
                         y="0"
                         sodipodi:role="line"
                         id="tspan4166">0.8</tspan>
                    </text>
                  </g>
                  <path
                     inkscape:connector-curvature="0"
                     d="m 10858.3,385 0,93.332"
                     style="fill:none;stroke:#000000;stroke-width:25;stroke-linecap:butt;stroke-linejoin:round;stroke-miterlimit:10;stroke-opacity:1;stroke-dasharray:none"
                     id="path4168" />
                  <g
                     id="g4170"
                     transform="scale(10,10)">
                    <text
                       transform="matrix(1,0,0,-1,1078.33,15.6668)"
                       id="text4172">
                      <tspan
                         style="font-size:25px;font-variant:normal;font-weight:bold;writing-mode:lr-tb;fill:#000000;fill-opacity:1;fill-rule:nonzero;stroke:none;font-family:Courier 10 Pitch;-inkscape-font-specification:Courier-Bold"
                         x="0"
                         y="0"
                         id="tspan4174">1</tspan>
                    </text>
                  </g>
                  <path
                     inkscape:connector-curvature="0"
                     d="m 1559.17,385 93.33,0"
                     style="fill:none;stroke:#000000;stroke-width:25;stroke-linecap:butt;stroke-linejoin:round;stroke-miterlimit:10;stroke-opacity:1;stroke-dasharray:none"
                     id="path4176" />
                  <g
                     id="g4178"
                     transform="scale(10,10)">
                    <text
                       transform="matrix(1,0,0,-1,138.083,30.5)"
                       id="text4180">
                      <tspan
                         style="font-size:25px;font-variant:normal;font-weight:bold;writing-mode:lr-tb;fill:#000000;fill-opacity:1;fill-rule:nonzero;stroke:none;font-family:Courier 10 Pitch;-inkscape-font-specification:Courier-Bold"
                         x="0"
                         y="0"
                         id="tspan4182">0</tspan>
                    </text>
                  </g>
                  <path
                     inkscape:connector-curvature="0"
                     d="m 1559.17,1019.17 93.33,0"
                     style="fill:none;stroke:#000000;stroke-width:25;stroke-linecap:butt;stroke-linejoin:round;stroke-miterlimit:10;stroke-opacity:1;stroke-dasharray:none"
                     id="path4184" />
                  <g
                     id="g4186"
                     transform="scale(10,10)">
                    <text
                       transform="matrix(1,0,0,-1,138.083,93.9168)"
                       id="text4188">
                      <tspan
                         style="font-size:25px;font-variant:normal;font-weight:bold;writing-mode:lr-tb;fill:#000000;fill-opacity:1;fill-rule:nonzero;stroke:none;font-family:Courier 10 Pitch;-inkscape-font-specification:Courier-Bold"
                         x="0"
                         y="0"
                         id="tspan4190">1</tspan>
                    </text>
                  </g>
                  <path
                     inkscape:connector-curvature="0"
                     d="m 1559.17,1653.33 93.33,0"
                     style="fill:none;stroke:#000000;stroke-width:25;stroke-linecap:butt;stroke-linejoin:round;stroke-miterlimit:10;stroke-opacity:1;stroke-dasharray:none"
                     id="path4192" />
                  <g
                     id="g4194"
                     transform="scale(10,10)">
                    <text
                       transform="matrix(1,0,0,-1,138.083,157.333)"
                       id="text4196">
                      <tspan
                         style="font-size:25px;font-variant:normal;font-weight:bold;writing-mode:lr-tb;fill:#000000;fill-opacity:1;fill-rule:nonzero;stroke:none;font-family:Courier 10 Pitch;-inkscape-font-specification:Courier-Bold"
                         x="0"
                         y="0"
                         id="tspan4198">2</tspan>
                    </text>
                  </g>
                  <path
                     inkscape:connector-curvature="0"
                     d="m 1559.17,2286.67 93.33,0"
                     style="fill:none;stroke:#000000;stroke-width:25;stroke-linecap:butt;stroke-linejoin:round;stroke-miterlimit:10;stroke-opacity:1;stroke-dasharray:none"
                     id="path4200" />
                  <g
                     id="g4202"
                     transform="scale(10,10)">
                    <text
                       transform="matrix(1,0,0,-1,138.083,220.667)"
                       id="text4204">
                      <tspan
                         style="font-size:25px;font-variant:normal;font-weight:bold;writing-mode:lr-tb;fill:#000000;fill-opacity:1;fill-rule:nonzero;stroke:none;font-family:Courier 10 Pitch;-inkscape-font-specification:Courier-Bold"
                         x="0"
                         y="0"
                         id="tspan4206">3</tspan>
                    </text>
                  </g>
                  <path
                     inkscape:connector-curvature="0"
                     d="m 1559.17,2920.83 93.33,0"
                     style="fill:none;stroke:#000000;stroke-width:25;stroke-linecap:butt;stroke-linejoin:round;stroke-miterlimit:10;stroke-opacity:1;stroke-dasharray:none"
                     id="path4208" />
                  <g
                     id="g4210"
                     transform="scale(10,10)">
                    <text
                       transform="matrix(1,0,0,-1,138.083,284.083)"
                       id="text4212">
                      <tspan
                         style="font-size:25px;font-variant:normal;font-weight:bold;writing-mode:lr-tb;fill:#000000;fill-opacity:1;fill-rule:nonzero;stroke:none;font-family:Courier 10 Pitch;-inkscape-font-specification:Courier-Bold"
                         x="0"
                         y="0"
                         id="tspan4214">4</tspan>
                    </text>
                  </g>
                  <path
                     inkscape:connector-curvature="0"
                     d="m 4556.67,2540.83 c 0,-27.61 -22.39,-50 -50,-50 -27.62,0 -50,22.39 -50,50 0,27.62 22.38,50 50,50 27.61,0 50,-22.38 50,-50"
                     style="fill:#3366cc;fill-opacity:1;fill-rule:nonzero;stroke:none"
                     id="path4216" />
                  <path
                     inkscape:connector-curvature="0"
                     d="m 4191.67,2540.83 c 0,-27.61 -22.39,-50 -50,-50 -27.62,0 -50,22.39 -50,50 0,27.62 22.38,50 50,50 27.61,0 50,-22.38 50,-50"
                     style="fill:#3366cc;fill-opacity:1;fill-rule:nonzero;stroke:none"
                     id="path4218" />
                  <path
                     inkscape:connector-curvature="0"
                     d="m 6603.33,2540.83 c 0,-27.61 -22.38,-50 -50,-50 -27.61,0 -50,22.39 -50,50 0,27.62 22.39,50 50,50 27.62,0 50,-22.38 50,-50"
                     style="fill:#3366cc;fill-opacity:1;fill-rule:nonzero;stroke:none"
                     id="path4220" />
                  <path
                     inkscape:connector-curvature="0"
                     d="m 4612.5,2540.83 c 0,-27.61 -22.39,-50 -50,-50 -27.61,0 -50,22.39 -50,50 0,27.62 22.39,50 50,50 27.61,0 50,-22.38 50,-50"
                     style="fill:#3366cc;fill-opacity:1;fill-rule:nonzero;stroke:none"
                     id="path4222" />
                  <path
                     inkscape:connector-curvature="0"
                     d="m 5771.67,2540.83 c 0,-27.61 -22.39,-50 -50,-50 -27.62,0 -50,22.39 -50,50 0,27.62 22.38,50 50,50 27.61,0 50,-22.38 50,-50"
                     style="fill:#3366cc;fill-opacity:1;fill-rule:nonzero;stroke:none"
                     id="path4224" />
                  <path
                     inkscape:connector-curvature="0"
                     d="m 4414.17,2540.83 c 0,-27.61 -22.39,-50 -50,-50 -27.62,0 -50,22.39 -50,50 0,27.62 22.38,50 50,50 27.61,0 50,-22.38 50,-50"
                     style="fill:#3366cc;fill-opacity:1;fill-rule:nonzero;stroke:none"
                     id="path4226" />
                  <path
                     inkscape:connector-curvature="0"
                     d="m 6294.17,2540.83 c 0,-27.61 -22.39,-50 -50,-50 -27.62,0 -50,22.39 -50,50 0,27.62 22.38,50 50,50 27.61,0 50,-22.38 50,-50"
                     style="fill:#3366cc;fill-opacity:1;fill-rule:nonzero;stroke:none"
                     id="path4228" />
                  <path
                     inkscape:connector-curvature="0"
                     d="m 3505,2540.83 c 0,-27.61 -22.39,-50 -50,-50 -27.61,0 -50,22.39 -50,50 0,27.62 22.39,50 50,50 27.61,0 50,-22.38 50,-50"
                     style="fill:#3366cc;fill-opacity:1;fill-rule:nonzero;stroke:none"
                     id="path4230" />
                  <path
                     inkscape:connector-curvature="0"
                     d="m 4479.17,2540.83 c 0,-27.61 -22.39,-50 -50,-50 -27.62,0 -50,22.39 -50,50 0,27.62 22.38,50 50,50 27.61,0 50,-22.38 50,-50"
                     style="fill:#3366cc;fill-opacity:1;fill-rule:nonzero;stroke:none"
                     id="path4232" />
                  <path
                     inkscape:connector-curvature="0"
                     d="m 5100,2540.83 c 0,-27.61 -22.39,-50 -50,-50 -27.61,0 -50,22.39 -50,50 0,27.62 22.39,50 50,50 27.61,0 50,-22.38 50,-50"
                     style="fill:#3366cc;fill-opacity:1;fill-rule:nonzero;stroke:none"
                     id="path4234" />
                  <path
                     inkscape:connector-curvature="0"
                     d="m 3670,2540.83 c 0,-27.61 -22.39,-50 -50,-50 -27.61,0 -50,22.39 -50,50 0,27.62 22.39,50 50,50 27.61,0 50,-22.38 50,-50"
                     style="fill:#3366cc;fill-opacity:1;fill-rule:nonzero;stroke:none"
                     id="path4236" />
                  <path
                     inkscape:connector-curvature="0"
                     d="m 6900,2540.83 c 0,-27.61 -22.39,-50 -50,-50 -27.61,0 -50,22.39 -50,50 0,27.62 22.39,50 50,50 27.61,0 50,-22.38 50,-50"
                     style="fill:#3366cc;fill-opacity:1;fill-rule:nonzero;stroke:none"
                     id="path4238" />
                  <path
                     inkscape:connector-curvature="0"
                     d="m 4742.5,2540.83 c 0,-27.61 -22.39,-50 -50,-50 -27.61,0 -50,22.39 -50,50 0,27.62 22.39,50 50,50 27.61,0 50,-22.38 50,-50"
                     style="fill:#3366cc;fill-opacity:1;fill-rule:nonzero;stroke:none"
                     id="path4240" />
                  <path
                     inkscape:connector-curvature="0"
                     d="m 6922.5,2540.83 c 0,-27.61 -22.39,-50 -50,-50 -27.61,0 -50,22.39 -50,50 0,27.62 22.39,50 50,50 27.61,0 50,-22.38 50,-50"
                     style="fill:#3366cc;fill-opacity:1;fill-rule:nonzero;stroke:none"
                     id="path4242" />
                  <path
                     inkscape:connector-curvature="0"
                     d="m 5627.5,2540.83 c 0,-27.61 -22.39,-50 -50,-50 -27.61,0 -50,22.39 -50,50 0,27.62 22.39,50 50,50 27.61,0 50,-22.38 50,-50"
                     style="fill:#3366cc;fill-opacity:1;fill-rule:nonzero;stroke:none"
                     id="path4244" />
                  <path
                     inkscape:connector-curvature="0"
                     d="m 4944.17,2540.83 c 0,-27.61 -22.39,-50 -50,-50 -27.62,0 -50,22.39 -50,50 0,27.62 22.38,50 50,50 27.61,0 50,-22.38 50,-50"
                     style="fill:#3366cc;fill-opacity:1;fill-rule:nonzero;stroke:none"
                     id="path4246" />
                  <path
                     inkscape:connector-curvature="0"
                     d="m 4134.17,2540.83 c 0,-27.61 -22.39,-50 -50,-50 -27.62,0 -50,22.39 -50,50 0,27.62 22.38,50 50,50 27.61,0 50,-22.38 50,-50"
                     style="fill:#3366cc;fill-opacity:1;fill-rule:nonzero;stroke:none"
                     id="path4248" />
                  <path
                     inkscape:connector-curvature="0"
                     d="m 3849.17,2540.83 c 0,-27.61 -22.39,-50 -50,-50 -27.62,0 -50,22.39 -50,50 0,27.62 22.38,50 50,50 27.61,0 50,-22.38 50,-50"
                     style="fill:#3366cc;fill-opacity:1;fill-rule:nonzero;stroke:none"
                     id="path4250" />
                  <path
                     inkscape:connector-curvature="0"
                     d="m 5441.67,2540.83 c 0,-27.61 -22.39,-50 -50,-50 -27.62,0 -50,22.39 -50,50 0,27.62 22.38,50 50,50 27.61,0 50,-22.38 50,-50"
                     style="fill:#3366cc;fill-opacity:1;fill-rule:nonzero;stroke:none"
                     id="path4252" />
                  <path
                     inkscape:connector-curvature="0"
                     d="m 3777.5,2540.83 c 0,-27.61 -22.39,-50 -50,-50 -27.61,0 -50,22.39 -50,50 0,27.62 22.39,50 50,50 27.61,0 50,-22.38 50,-50"
                     style="fill:#3366cc;fill-opacity:1;fill-rule:nonzero;stroke:none"
                     id="path4254" />
                  <g
                     id="g4256">
                    <g
                       id="g4258"
                       clip-path="url(#clipPath4260)">
                      <path
                         inkscape:connector-curvature="0"
                         d="m 8540.84,391.668 30.83,0 8.33,-0.836 38.34,0 8.33,-0.832 45.83,0 8.34,-0.832 61.66,0 7.5,-0.836 77.5,0 8.34,-0.832 108.33,0 7.5,-0.832 194.17,0 7.5,-0.836 1704.96,0"
                         style="fill:none;stroke:#3366cc;stroke-width:20;stroke-linecap:butt;stroke-linejoin:round;stroke-miterlimit:10;stroke-opacity:1;stroke-dasharray:none"
                         id="path4264" />
                      <path
                         inkscape:connector-curvature="0"
                         d="m 6224.17,1265.83 7.5,-7.5 8.33,-8.33 7.5,-7.5 7.5,-7.5 8.33,-7.5 7.5,-7.5 7.5,-7.5 7.5,-7.5 8.34,-7.5 7.5,-7.5 7.5,-6.67 8.33,-7.5 7.5,-7.5 7.5,-7.5 8.33,-7.5 7.5,-6.66 7.5,-7.5 7.5,-7.5 8.34,-6.67 7.5,-7.5 7.5,-6.67 8.33,-7.5 7.5,-6.66 7.5,-7.5 8.33,-6.67 7.5,-6.67 7.5,-7.5 7.5,-6.66 8.34,-6.67 7.5,-6.67 7.5,-6.66 8.33,-6.67 7.5,-7.5 7.5,-6.67 8.33,-5.83 7.5,-6.67 7.5,-6.66 7.5,-6.67 8.34,-6.668 7.5,-6.664 7.5,-5.836 8.33,-6.664 7.5,-5.836 7.5,-6.664 8.33,-5.836 7.5,-6.664 7.5,-5.836 7.5,-6.664 8.34,-5.836 7.5,-5.832 7.5,-5.832 8.33,-6.668 7.5,-5.832 7.5,-5.836 8.33,-5.832 7.5,-5.832 7.5,-5.836 7.5,-5.832 8.34,-5 7.5,-5.832 7.5,-5.836 8.33,-5 7.5,-5.832 7.5,-5.832 7.5,-5 8.33,-5.836 7.5,-5 7.5,-5 8.34,-5.832 7.5,-5 7.5,-5 8.33,-5 7.5,-5 7.5,-5.832 7.5,-5 8.33,-5 7.5,-4.168 7.5,-5 8.34,-5 7.5,-5 7.5,-5 8.33,-4.168 7.5,-5 7.5,-4.164 7.5,-5 8.33,-4.168 7.5,-5 7.5,-4.168 8.34,-4.164 7.5,-5 7.5,-4.168 8.33,-4.168 7.5,-4.164 7.5,-4.168 7.5,-4.168 8.33,-4.164 7.5,-4.168 7.5,-4.168 8.34,-4.164 7.5,-4.168 7.5,-3.332 8.33,-4.168 7.5,-4.168 7.5,-3.332 7.5,-4.168 8.33,-3.332 7.5,-4.168 7.5,-3.332 8.34,-3.332 7.5,-4.168 7.5,-3.332 8.33,-3.336 7.5,-3.332 7.5,-3.332 7.5,-3.336 8.33,-3.332 7.5,-3.332 7.5,-3.336 8.34,-3.332 7.5,-3.332 7.5,-3.336 7.5,-3.332 8.33,-2.5 7.5,-3.332 7.5,-3.336 8.33,-2.5 7.5,-3.332 7.5,-2.5 8.34,-3.332 7.5,-2.5 7.5,-3.336 7.5,-2.5 8.33,-2.5 7.5,-2.5 7.5,-3.332 8.33,-2.5 7.5,-2.5 7.5,-2.5 8.34,-2.5 7.5,-2.5 7.5,-2.5 7.5,-2.5 8.33,-2.5 7.5,-2.5 7.5,-2.5 8.33,-1.668 7.5,-2.5 7.5,-2.5 8.34,-2.5 7.5,-1.664 7.5,-2.5 7.5,-2.5 8.33,-1.668 7.5,-2.5 7.5,-1.668 8.33,-2.5 7.5,-1.664 7.5,-1.668 8.34,-2.5 7.5,-1.668 7.5,-1.664 7.5,-2.5 8.33,-1.668 7.5,-1.668 7.5,-1.664 8.33,-1.668 7.5,-1.668 7.5,-1.664 8.34,-1.668 7.5,-1.668 7.5,-1.664 7.5,-1.668 8.33,-1.668 7.5,-1.664 7.5,-1.668 8.33,-1.668 7.5,-1.664 7.5,-1.668 7.5,-0.832 8.34,-1.668 7.5,-1.668 7.5,-0.832 8.33,-1.668 7.5,-1.664 7.5,-0.836 8.33,-1.664 7.5,-0.836 7.5,-1.664 7.5,-0.836 8.34,-1.664 7.5,-0.836 7.5,-1.664 8.33,-0.836 7.5,-1.664 7.5,-0.836 8.33,-0.832 7.5,-1.668 7.5,-0.832 7.5,-0.832 8.34,-1.668 7.5,-0.832 7.5,-0.836 8.33,-0.832 7.5,-0.832 7.5,-1.668 8.33,-0.832 7.5,-0.836 7.5,-0.832 7.5,-0.832 8.34,-0.836 7.5,-0.832 7.5,-0.832 8.33,-0.836 7.5,-0.832 7.5,-0.832 8.33,-0.836 7.5,-0.832 7.5,-0.832 7.5,-0.836 8.34,-0.832 7.5,-0.832 7.5,-0.836 8.33,-0.832 7.5,0 7.5,-0.832 8.33,-0.836 7.5,-0.832 7.5,-0.832 7.5,0 8.34,-0.836 7.5,-0.832 7.5,-0.832 8.33,0 7.5,-0.836 7.5,-0.832 8.33,0 7.5,-0.832 7.5,-0.836 7.5,0 8.34,-0.832 7.5,-0.832 7.5,0 8.33,-0.836 7.5,0 7.5,-0.832 7.5,-0.832 8.33,0 7.5,-0.836 7.5,0 8.34,-0.832 7.5,0 7.5,-0.832 8.33,0 7.5,-0.836 7.5,0 7.5,-0.832 8.33,0 7.5,-0.832 15.84,0 7.5,-0.836 7.5,0 8.33,-0.832 15,0 7.5,-0.832 8.33,0 7.5,-0.836 15.84,0 7.5,-0.832 15.83,0 7.5,-0.832 23.33,0 7.5,-0.836 15.84,0 7.5,-0.832 23.33,0 7.5,-0.832 23.33,0 7.5,-0.836 23.34,0 8.33,-0.832 30.83,0 7.5,-0.832 7.5,0"
                         style="fill:none;stroke:#3366cc;stroke-width:20;stroke-linecap:butt;stroke-linejoin:round;stroke-miterlimit:10;stroke-opacity:1;stroke-dasharray:none"
                         id="path4266" />
                      <path
                         inkscape:connector-curvature="0"
                         d="m 3907.5,1548.33 7.5,7.5 7.5,8.34 8.33,7.5 7.5,8.33 7.5,7.5 8.34,8.33 7.5,7.5 7.5,7.5 8.33,8.34 7.5,7.5 7.5,8.33 7.5,7.5 8.33,7.5 7.5,8.33 7.5,7.5 8.34,7.5 7.5,8.34 7.5,7.5 8.33,7.5 7.5,7.5 7.5,7.5 7.5,7.5 8.33,7.5 7.5,8.33 7.5,7.5 8.34,7.5 7.5,6.67 7.5,7.5 8.33,7.5 7.5,7.5 7.5,7.5 7.5,7.5 8.33,6.66 7.5,7.5 7.5,7.5 8.34,6.67 7.5,7.5 7.5,6.67 8.33,7.5 7.5,6.66 7.5,6.67 7.5,7.5 8.33,6.67 7.5,6.66 7.5,6.67 8.34,6.67 7.5,6.66 7.5,6.67 8.33,6.67 7.5,6.66 7.5,5.84 7.5,6.66 8.33,6.67 7.5,5.83 7.5,6.67 8.34,5.83 7.5,6.67 7.5,5.83 7.5,5.84 8.33,5.83 7.5,5.83 7.5,5.84 8.33,5.83 7.5,5.83 7.5,5.84 8.34,5 7.5,5.83 7.5,5.83 7.5,5 8.33,5 7.5,5.84 7.5,5 8.33,5 7.5,5 7.5,5 8.34,5 7.5,5 7.5,4.16 7.5,5 8.33,4.17 7.5,5 7.5,4.17 8.33,4.16 7.5,4.17 7.5,5 8.34,3.33 7.5,4.17 7.5,4.17 7.5,4.16 8.33,3.34 7.5,4.16 7.5,3.34 8.33,3.33 7.5,3.33 7.5,4.17 8.34,2.5 7.5,3.33 7.5,3.34 7.5,3.33 8.33,2.5 7.5,3.33 7.5,2.5 8.33,2.5 7.5,2.5 7.5,2.5 8.34,2.5 7.5,2.5 7.5,2.5 7.5,1.67 8.33,2.5 7.5,1.67 7.5,1.66 8.33,2.5 7.5,1.67 7.5,0.83 8.34,1.67 7.5,1.67 7.5,1.66 7.5,0.84 8.33,0.83 7.5,1.67 7.5,0.83 8.33,0.83 7.5,0.84 7.5,0.83 7.5,0 8.34,0.83 7.5,0 7.5,0.84 39.16,0 7.5,-0.84 7.5,0 8.34,-0.83 7.5,0 7.5,-0.83 8.33,-0.84 7.5,-0.83 7.5,-0.83 8.33,-0.84 7.5,-1.66 7.5,-0.84 7.5,-1.66 8.34,-0.84 7.5,-1.66 7.5,-1.67 8.33,-1.67 7.5,-1.66 7.5,-2.5 8.33,-1.67 7.5,-1.67 7.5,-2.5 7.5,-2.5 8.34,-1.66 7.5,-2.5 7.5,-2.5 8.33,-2.5 7.5,-3.34 7.5,-2.5 8.33,-2.5 7.5,-3.33 7.5,-2.5 7.5,-3.33 8.34,-3.34 7.5,-3.33 7.5,-3.33 8.33,-3.34 7.5,-3.33 7.5,-4.17 8.33,-3.33 7.5,-4.17 7.5,-3.33 7.5,-4.17 8.34,-4.16 7.5,-4.17 7.5,-4.17 8.33,-4.16 7.5,-4.17 7.5,-5 7.5,-4.17 8.33,-4.16 7.5,-5 7.5,-5 8.34,-4.17 7.5,-5 7.5,-5 8.33,-5 7.5,-5 7.5,-5.83 7.5,-5 8.33,-5 7.5,-5.84 7.5,-5 8.34,-5.83 7.5,-5 7.5,-5.83 8.33,-5.84 7.5,-5.83 7.5,-5.83 7.5,-5.84 8.33,-5.83 7.5,-5.83 7.5,-6.67 8.34,-5.83 7.5,-5.84 7.5,-6.66 8.33,-5.84 7.5,-6.66 7.5,-6.67 7.5,-5.83 8.33,-6.67 7.5,-6.67 7.5,-6.66 8.34,-6.67 7.5,-6.67 7.5,-6.66 8.33,-6.67 7.5,-6.67 7.5,-7.5 7.5,-6.66 8.33,-6.67 7.5,-7.5 7.5,-6.67 8.34,-7.5 7.5,-6.66 7.5,-7.5 8.33,-7.5 7.5,-6.67 7.5,-7.5 7.5,-7.5 8.33,-7.5 7.5,-7.5 7.5,-7.5 8.34,-6.67 7.5,-7.5 7.5,-7.5 7.5,-7.5 8.33,-8.33 7.5,-7.5 7.5,-7.5 8.33,-7.5 7.5,-7.5 7.5,-7.5 8.34,-8.33 7.5,-7.5 7.5,-7.5 7.5,-8.34 8.33,-7.5 7.5,-7.5 7.5,-8.33 8.33,-7.5 7.5,-7.5 7.5,-8.33 8.34,-7.5 7.5,-8.34 7.5,-7.5 7.5,-8.33 8.33,-7.5 7.5,-8.33 7.5,-7.5 8.33,-8.34 7.5,-7.5 7.5,-8.33 8.34,-7.5 7.5,-8.33 7.5,-7.5 7.5,-8.34 8.33,-8.33 7.5,-7.5 7.5,-8.33 8.33,-7.5 7.5,-8.34 7.5,-7.5 8.34,-8.33 7.5,-7.5 7.5,-8.33 7.5,-7.5 8.33,-8.34 7.5,-7.5 7.5,-8.33 8.33,-7.5 7.5,-8.33 7.5,-7.5 8.34,-8.34 7.5,-7.5 7.5,-7.5 7.5,-8.33 8.33,-7.5 7.5,-7.5 7.5,-8.33 8.33,-7.5 7.5,-7.5 7.5,-8.34 8.34,-7.5 7.5,-7.5 7.5,-7.5"
                         style="fill:none;stroke:#3366cc;stroke-width:20;stroke-linecap:butt;stroke-linejoin:round;stroke-miterlimit:10;stroke-opacity:1;stroke-dasharray:none"
                         id="path4268" />
                      <path
                         inkscape:connector-curvature="0"
                         d="m 1590.83,400 7.5,0.832 7.5,0 8.34,0.836 15,0 7.5,0.832 8.33,0 7.5,0.832 7.5,0 8.33,0.836 7.5,0 7.5,0.832 8.34,0 7.5,0.832 7.5,0 7.5,0.836 8.33,0 7.5,0.832 7.5,0.832 8.33,0 7.5,0.836 7.5,0 8.34,0.832 7.5,0.832 7.5,0 7.5,0.836 8.33,0.832 7.5,0 7.5,0.832 8.33,0.836 7.5,0 7.5,0.832 8.34,0.832 7.5,0.836 7.5,0 7.5,0.832 8.33,0.832 7.5,0.836 7.5,0.832 8.33,0 7.5,0.832 7.5,0.836 8.34,0.832 7.5,0.832 7.5,0.836 7.5,0.832 8.33,0.832 7.5,0.836 7.5,0.832 8.33,0.832 7.5,0.836 7.5,0.832 8.34,0.832 7.5,0.836 7.5,0.832 7.5,0.832 8.33,0.836 7.5,0.832 7.5,0.832 8.33,1.668 7.5,0.832 7.5,0.836 7.5,0.832 8.34,1.668 7.5,0.832 7.5,0.832 8.33,0.836 7.5,1.664 7.5,0.836 8.33,1.664 7.5,0.836 7.5,0.832 7.5,1.668 8.34,0.832 7.5,1.668 7.5,0.832 8.33,1.668 7.5,1.664 7.5,0.836 8.33,1.664 7.5,0.836 7.5,1.664 7.5,1.668 8.34,1.668 7.5,0.832 7.5,1.668 8.33,1.664 7.5,1.668 7.5,1.668 8.33,0.832 7.5,1.668 7.5,1.664 7.5,1.668 8.34,1.668 7.5,1.664 7.5,1.668 8.33,2.5 7.5,1.668 7.5,1.664 8.33,1.668 7.5,1.668 7.5,1.664 7.5,2.5 8.34,1.668 7.5,1.668 7.5,2.5 8.33,1.664 7.5,2.5 7.5,1.668 8.33,2.5 7.5,1.668 7.5,2.5 7.5,1.664 8.34,2.5 7.5,2.5 7.5,1.668 8.33,2.5 7.5,2.5 7.5,2.5 7.5,2.5 8.33,2.5 7.5,2.5 7.5,2.5 8.34,2.5 7.5,2.5 7.5,2.5 8.33,2.5 7.5,2.5 7.5,2.5 7.5,2.5 8.33,3.332 7.5,2.5 7.5,2.5 8.34,3.336 7.5,2.5 7.5,3.332 8.33,2.5 7.5,3.332 7.5,3.336 7.5,2.5 8.33,3.332 7.5,3.332 7.5,3.336 8.34,2.5 7.5,3.332 7.5,3.332 8.33,3.336 7.5,3.332 7.5,3.332 7.5,3.336 8.33,3.332 7.5,4.168 7.5,3.332 8.34,3.332 7.5,4.168 7.5,3.332 8.33,3.336 7.5,4.164 7.5,3.336 7.5,4.164 8.33,4.168 7.5,3.332 7.5,4.168 8.34,4.168 7.5,3.332 7.5,4.168 8.33,4.164 7.5,4.168 7.5,4.168 7.5,4.164 8.33,4.168 7.5,5 7.5,4.168 8.34,4.164 7.5,4.168 7.5,5 7.5,4.168 8.33,4.164 7.5,5 7.5,5 8.33,4.168 7.5,5 7.5,4.168 8.34,5 7.5,5 7.5,5 7.5,5 8.33,5 7.5,5 7.5,5 8.33,5 7.5,5 7.5,5 8.34,5.832 7.5,5 7.5,5 7.5,5.832 8.33,5 7.5,5.836 7.5,5 8.33,5.832 7.5,5 7.5,5.832 8.34,5.836 7.5,5.832 7.5,5.832 7.5,5 8.33,5.836 7.5,5.832 7.5,5.832 8.33,6.668 7.5,5.832 7.5,5.836 8.34,5.832 7.5,5.832 7.5,6.668 7.5,5.832 8.33,6.668 7.5,5.832 7.5,6.668 8.33,5.832 7.5,6.668 7.5,6.668 8.34,5.832 7.5,6.668 7.5,6.662 7.5,6.67 8.33,6.67 7.5,6.66 7.5,6.67 8.33,6.67 7.5,6.66 7.5,6.67 8.34,6.67 7.5,6.66 7.5,6.67 7.5,7.5 8.33,6.67 7.5,6.66 7.5,7.5 8.33,6.67 7.5,7.5 7.5,6.67 7.5,7.5 8.34,6.66 7.5,7.5 7.5,7.5 8.33,6.67 7.5,7.5 7.5,7.5 8.33,7.5 7.5,7.5 7.5,6.67 7.5,7.5 8.34,7.5 7.5,7.5 7.5,7.5 8.33,7.5 7.5,7.5 7.5,7.5 8.33,7.5 7.5,8.33 7.5,7.5 7.5,7.5 8.34,7.5 7.5,7.5 7.5,8.33 8.33,7.5 7.5,7.5 7.5,7.5 8.33,8.34 7.5,7.5 7.5,8.33 7.5,7.5 8.34,7.5 7.5,8.33 7.5,7.5 8.33,8.34 7.5,7.5 7.5,8.33 8.33,7.5 7.5,8.33 7.5,7.5 7.5,8.34 8.34,7.5 7.5,8.33 7.5,7.5 8.33,8.33 7.5,7.5 7.5,8.34 8.33,7.5 7.5,8.33 7.5,7.5 7.5,8.33 8.34,8.34 7.5,7.5 7.5,8.33 8.33,7.5 7.5,8.33"
                         style="fill:none;stroke:#3366cc;stroke-width:20;stroke-linecap:butt;stroke-linejoin:round;stroke-miterlimit:10;stroke-opacity:1;stroke-dasharray:none"
                         id="path4270" />
                      <path
                         inkscape:connector-curvature="0"
                         d="m 1559.17,399.168 8.33,0 7.5,0.832 15.83,0"
                         style="fill:none;stroke:#3366cc;stroke-width:20;stroke-linecap:butt;stroke-linejoin:round;stroke-miterlimit:10;stroke-opacity:1;stroke-dasharray:none"
                         id="path4272" />
                    </g>
                  </g>
                  <path
                     inkscape:connector-curvature="0"
                     d="m 7815,3110.83 c 0,-27.61 -22.39,-50 -50,-50 -27.61,0 -50,22.39 -50,50 0,27.62 22.39,50 50,50 27.61,0 50,-22.38 50,-50"
                     style="fill:#e68000;fill-opacity:1;fill-rule:nonzero;stroke:none"
                     id="path4274" />
                  <path
                     inkscape:connector-curvature="0"
                     d="m 8730.84,3110.83 c 0,-27.61 -22.39,-50 -50,-50 -27.62,0 -50,22.39 -50,50 0,27.62 22.38,50 50,50 27.61,0 50,-22.38 50,-50"
                     style="fill:#e68000;fill-opacity:1;fill-rule:nonzero;stroke:none"
                     id="path4276" />
                  <path
                     inkscape:connector-curvature="0"
                     d="m 8973.34,3110.83 c 0,-27.61 -22.39,-50 -50,-50 -27.62,0 -50,22.39 -50,50 0,27.62 22.38,50 50,50 27.61,0 50,-22.38 50,-50"
                     style="fill:#e68000;fill-opacity:1;fill-rule:nonzero;stroke:none"
                     id="path4278" />
                  <path
                     inkscape:connector-curvature="0"
                     d="m 7994.17,3110.83 c 0,-27.61 -22.39,-50 -50,-50 -27.62,0 -50,22.39 -50,50 0,27.62 22.38,50 50,50 27.61,0 50,-22.38 50,-50"
                     style="fill:#e68000;fill-opacity:1;fill-rule:nonzero;stroke:none"
                     id="path4280" />
                  <path
                     inkscape:connector-curvature="0"
                     d="m 7325,3110.83 c 0,-27.61 -22.39,-50 -50,-50 -27.61,0 -50,22.39 -50,50 0,27.62 22.39,50 50,50 27.61,0 50,-22.38 50,-50"
                     style="fill:#e68000;fill-opacity:1;fill-rule:nonzero;stroke:none"
                     id="path4282" />
                  <path
                     inkscape:connector-curvature="0"
                     d="m 6518.33,3110.83 c 0,-27.61 -22.38,-50 -50,-50 -27.61,0 -50,22.39 -50,50 0,27.62 22.39,50 50,50 27.62,0 50,-22.38 50,-50"
                     style="fill:#e68000;fill-opacity:1;fill-rule:nonzero;stroke:none"
                     id="path4284" />
                  <path
                     inkscape:connector-curvature="0"
                     d="m 8270,3110.83 c 0,-27.61 -22.39,-50 -50,-50 -27.61,0 -50,22.39 -50,50 0,27.62 22.39,50 50,50 27.61,0 50,-22.38 50,-50"
                     style="fill:#e68000;fill-opacity:1;fill-rule:nonzero;stroke:none"
                     id="path4286" />
                  <path
                     inkscape:connector-curvature="0"
                     d="m 8412.5,3110.83 c 0,-27.61 -22.39,-50 -50,-50 -27.61,0 -50,22.39 -50,50 0,27.62 22.39,50 50,50 27.61,0 50,-22.38 50,-50"
                     style="fill:#e68000;fill-opacity:1;fill-rule:nonzero;stroke:none"
                     id="path4288" />
                  <path
                     inkscape:connector-curvature="0"
                     d="m 9391.67,3110.83 c 0,-27.61 -22.39,-50 -50,-50 -27.62,0 -50,22.39 -50,50 0,27.62 22.38,50 50,50 27.61,0 50,-22.38 50,-50"
                     style="fill:#e68000;fill-opacity:1;fill-rule:nonzero;stroke:none"
                     id="path4290" />
                  <path
                     inkscape:connector-curvature="0"
                     d="m 8615.84,3110.83 c 0,-27.61 -22.39,-50 -50,-50 -27.62,0 -50,22.39 -50,50 0,27.62 22.38,50 50,50 27.61,0 50,-22.38 50,-50"
                     style="fill:#e68000;fill-opacity:1;fill-rule:nonzero;stroke:none"
                     id="path4292" />
                  <path
                     inkscape:connector-curvature="0"
                     d="m 8224.17,3110.83 c 0,-27.61 -22.39,-50 -50,-50 -27.62,0 -50,22.39 -50,50 0,27.62 22.38,50 50,50 27.61,0 50,-22.38 50,-50"
                     style="fill:#e68000;fill-opacity:1;fill-rule:nonzero;stroke:none"
                     id="path4294" />
                  <path
                     inkscape:connector-curvature="0"
                     d="m 8359.17,3110.83 c 0,-27.61 -22.39,-50 -50,-50 -27.62,0 -50,22.39 -50,50 0,27.62 22.38,50 50,50 27.61,0 50,-22.38 50,-50"
                     style="fill:#e68000;fill-opacity:1;fill-rule:nonzero;stroke:none"
                     id="path4296" />
                  <path
                     inkscape:connector-curvature="0"
                     d="m 8016.67,3110.83 c 0,-27.61 -22.39,-50 -50,-50 -27.62,0 -50,22.39 -50,50 0,27.62 22.38,50 50,50 27.61,0 50,-22.38 50,-50"
                     style="fill:#e68000;fill-opacity:1;fill-rule:nonzero;stroke:none"
                     id="path4298" />
                  <path
                     inkscape:connector-curvature="0"
                     d="m 7310,3110.83 c 0,-27.61 -22.39,-50 -50,-50 -27.61,0 -50,22.39 -50,50 0,27.62 22.39,50 50,50 27.61,0 50,-22.38 50,-50"
                     style="fill:#e68000;fill-opacity:1;fill-rule:nonzero;stroke:none"
                     id="path4300" />
                  <path
                     inkscape:connector-curvature="0"
                     d="m 9471.67,3110.83 c 0,-27.61 -22.39,-50 -50,-50 -27.62,0 -50,22.39 -50,50 0,27.62 22.38,50 50,50 27.61,0 50,-22.38 50,-50"
                     style="fill:#e68000;fill-opacity:1;fill-rule:nonzero;stroke:none"
                     id="path4302" />
                  <path
                     inkscape:connector-curvature="0"
                     d="m 8090.83,3110.83 c 0,-27.61 -22.38,-50 -50,-50 -27.61,0 -50,22.39 -50,50 0,27.62 22.39,50 50,50 27.62,0 50,-22.38 50,-50"
                     style="fill:#e68000;fill-opacity:1;fill-rule:nonzero;stroke:none"
                     id="path4304" />
                  <path
                     inkscape:connector-curvature="0"
                     d="m 8752.5,3110.83 c 0,-27.61 -22.39,-50 -50,-50 -27.61,0 -50,22.39 -50,50 0,27.62 22.39,50 50,50 27.61,0 50,-22.38 50,-50"
                     style="fill:#e68000;fill-opacity:1;fill-rule:nonzero;stroke:none"
                     id="path4306" />
                  <path
                     inkscape:connector-curvature="0"
                     d="m 8570.84,3110.83 c 0,-27.61 -22.39,-50 -50,-50 -27.62,0 -50,22.39 -50,50 0,27.62 22.38,50 50,50 27.61,0 50,-22.38 50,-50"
                     style="fill:#e68000;fill-opacity:1;fill-rule:nonzero;stroke:none"
                     id="path4308" />
                  <path
                     inkscape:connector-curvature="0"
                     d="m 6785.83,3110.83 c 0,-27.61 -22.38,-50 -50,-50 -27.61,0 -50,22.39 -50,50 0,27.62 22.39,50 50,50 27.62,0 50,-22.38 50,-50"
                     style="fill:#e68000;fill-opacity:1;fill-rule:nonzero;stroke:none"
                     id="path4310" />
                  <path
                     inkscape:connector-curvature="0"
                     d="m 7221.67,3110.83 c 0,-27.61 -22.39,-50 -50,-50 -27.62,0 -50,22.39 -50,50 0,27.62 22.38,50 50,50 27.61,0 50,-22.38 50,-50"
                     style="fill:#e68000;fill-opacity:1;fill-rule:nonzero;stroke:none"
                     id="path4312" />
                  <g
                     id="g4314">
                    <g
                       id="g4316"
                       clip-path="url(#clipPath4318)">
                      <path
                         inkscape:connector-curvature="0"
                         d="m 8540.84,2480.83 8.33,-11.66 7.5,-11.67 7.5,-11.67 7.5,-11.66 8.33,-12.5 7.5,-11.67 7.5,-12.5 8.34,-12.5 7.5,-12.5 7.5,-12.5 8.33,-12.5 7.5,-12.5 7.5,-13.33 7.5,-12.5 8.33,-13.34 7.5,-13.33 7.5,-13.33 8.34,-13.34 7.5,-13.33 7.5,-13.33 8.33,-13.34 7.5,-13.33 7.5,-14.17 7.5,-13.33 8.33,-14.17 7.5,-14.16 7.5,-13.34 8.34,-14.16 7.5,-14.17 7.5,-14.17 8.33,-14.16 7.5,-14.17 7.5,-14.17 7.5,-14.16 8.33,-14.17 7.5,-14.17 7.5,-14.16 8.34,-15 7.5,-14.17 7.5,-14.17 8.33,-14.16 7.5,-15 7.5,-14.17 7.5,-14.17 8.33,-15 7.5,-14.16 7.5,-14.17 8.34,-15 7.5,-14.17 7.5,-14.16 8.33,-15 7.5,-14.17 7.5,-14.17 7.5,-14.16 8.33,-14.17 7.5,-15 7.5,-14.17 8.34,-14.16 7.5,-14.17 7.5,-14.17 7.5,-14.16 8.33,-14.17 7.5,-14.17 7.5,-13.33 8.33,-14.17 7.5,-14.16 7.5,-14.17 8.34,-13.33 7.5,-14.17 7.5,-13.33 7.5,-13.34 8.33,-14.16 7.5,-13.34 7.5,-13.33 8.33,-13.33 7.5,-13.34 7.5,-13.33 8.34,-13.33 7.5,-13.34 7.5,-12.5 7.5,-13.33 8.33,-12.5 7.5,-13.33 7.5,-12.5 8.33,-12.5 7.5,-12.5 7.5,-12.5 8.34,-12.5 7.5,-12.5 7.5,-12.5 7.5,-11.67 8.33,-12.5 7.5,-11.67 7.5,-11.66 8.33,-12.5 7.5,-11.67 7.5,-11.67 8.34,-10.83 7.5,-11.67 7.5,-11.66 7.5,-10.84 8.33,-11.66 7.5,-10.84 7.5,-10.83 8.33,-10.83 7.5,-10.84 7.5,-10.83 8.34,-10 7.5,-10.83 7.5,-10 7.5,-10 8.33,-10.84 7.5,-10 7.5,-9.998 8.33,-9.164 7.5,-10 7.5,-10 8.34,-9.168 7.5,-9.168 7.5,-10 7.5,-9.164 8.33,-8.336 7.5,-9.164 7.5,-9.168 8.33,-9.168 7.5,-8.332 7.5,-8.332 7.5,-8.336 8.34,-9.164 7.5,-8.336 7.5,-7.5 8.33,-8.332 7.5,-8.332 7.5,-7.5 8.33,-7.5 7.5,-8.336 7.5,-7.5 7.5,-7.5 8.34,-7.5 7.5,-6.664 7.5,-7.5 8.33,-6.668 7.5,-7.5 7.5,-6.668 8.33,-6.664 7.5,-6.668 7.5,-6.668 7.5,-6.664 8.34,-6.668 7.5,-5.832 7.5,-6.668 8.33,-5.832 7.5,-5.836 7.5,-6.664 8.33,-5.836 7.5,-5.832 7.5,-5 7.5,-5.832 8.34,-5.836 7.5,-5 7.5,-5.832 8.33,-5 7.5,-5 7.5,-5 8.33,-5 7.5,-5 7.5,-5 7.5,-5 8.34,-4.168 7.5,-5 7.5,-4.164 8.33,-5 7.5,-4.168 7.5,-4.168 8.33,-4.164 7.5,-4.168 7.5,-4.168 7.5,-4.164 8.34,-4.168 7.5,-3.332 7.5,-4.168 8.33,-3.332 7.5,-4.168 7.5,-3.332 7.5,-3.336 8.33,-3.332 7.5,-3.332 7.5,-3.336 8.3,-3.332 7.5,-3.332 7.5,-3.336 8.4,-3.332 7.5,-2.5 7.5,-3.332 7.5,-2.5 8.3,-3.336 7.5,-2.5 7.5,-2.5 8.3,-3.332 7.5,-2.5 7.5,-2.5 8.4,-2.5 7.5,-2.5 7.5,-2.5 7.5,-2.5 8.3,-1.668 7.5,-2.5 7.5,-2.5 8.3,-1.664 7.5,-2.5 7.5,-1.668 8.4,-2.5 7.5,-1.668 7.5,-2.5 7.5,-1.664 8.3,-1.668 7.5,-1.668 7.5,-2.5 8.3,-1.664 7.5,-1.668 7.5,-1.668 8.4,-1.664 7.5,-1.668 7.5,-1.668 7.5,-0.832 8.3,-1.668 7.5,-1.664 7.5,-1.668 8.3,-0.832 7.5,-1.668 7.5,-1.668 8.4,-0.832 7.5,-1.668 7.5,-0.832 7.5,-1.668 8.3,-0.832 7.5,-0.832 7.5,-1.668 8.3,-0.832 7.5,-0.836 7.5,-1.664 7.5,-0.836 8.4,-0.832 7.5,-0.832 7.5,-0.836 8.3,-0.832 7.5,-0.832 7.5,-0.836 8.3,-0.832 7.5,-0.832 7.5,-0.836 7.5,-0.832 8.4,-0.832 7.5,-0.836 7.5,-0.832 8.3,-0.832 7.5,-0.836 7.5,-0.832 8.3,0 7.5,-0.832 7.5,-0.836 7.5,-0.832 8.4,0 7.5,-0.832 7.5,-0.836 8.3,0 7.5,-0.832 7.5,-0.832 8.3,0 7.5,-0.836 7.5,0 7.5,-0.832 8.4,0 7.5,-0.832 7.5,-0.836 15.8,0 7.5,-0.832 8.3,0 7.5,-0.832 7.5,0 7.5,-0.836 15.9,0 7.5,-0.832 8.3,0 7.5,-0.832 15.8,0 7.5,-0.836 15,0 8.4,-0.832 23.3,0 7.5,-0.832 15.8,0"
                         style="fill:none;stroke:#e68000;stroke-width:20;stroke-linecap:butt;stroke-linejoin:round;stroke-miterlimit:10;stroke-opacity:1;stroke-dasharray:none"
                         id="path4322" />
                      <path
                         inkscape:connector-curvature="0"
                         d="m 6224.17,544.168 7.5,4.164 8.33,3.336 7.5,4.164 7.5,3.336 8.33,4.164 7.5,4.168 7.5,4.168 7.5,4.164 8.34,4.168 7.5,4.168 7.5,4.164 8.33,5 7.5,4.168 7.5,4.168 8.33,5 7.5,5 7.5,5 7.5,4.164 8.34,5 7.5,5.836 7.5,5 8.33,5 7.5,5 7.5,5.832 8.33,5 7.5,5.832 7.5,5.836 7.5,5.832 8.34,5.832 7.5,5.836 7.5,5.832 8.33,6.668 7.5,5.832 7.5,6.668 8.33,5.832 7.5,6.668 7.5,6.664 7.5,6.668 8.34,6.668 7.5,6.664 7.5,7.5 8.33,6.668 7.5,7.5 7.5,7.5 8.33,6.668 7.5,7.5 7.5,7.5 7.5,8.332 8.34,7.5 7.5,7.5 7.5,8.332 8.33,8.336 7.5,7.5 7.5,8.332 8.33,8.332 7.5,9.168 7.5,8.332 7.5,8.336 8.34,9.164 7.5,8.336 7.5,9.164 8.33,9.168 7.5,9.168 7.5,9.164 7.5,10 8.33,9.168 7.5,10 7.5,9.168 8.34,10 7.5,10.002 7.5,10 8.33,10 7.5,10 7.5,10.83 7.5,10 8.33,10.83 7.5,10.84 7.5,10 8.34,10.83 7.5,10.83 7.5,11.67 8.33,10.83 7.5,10.84 7.5,11.66 7.5,11.67 8.33,11.67 7.5,10.83 7.5,11.67 8.34,12.5 7.5,11.66 7.5,11.67 8.33,12.5 7.5,11.67 7.5,12.5 7.5,12.5 8.33,12.5 7.5,12.5 7.5,12.5 8.34,12.5 7.5,12.5 7.5,12.5 8.33,13.33 7.5,12.5 7.5,13.33 7.5,13.34 8.33,13.33 7.5,13.33 7.5,12.5 8.34,14.17 7.5,13.33 7.5,13.34 8.33,13.33 7.5,14.17 7.5,13.33 7.5,13.33 8.33,14.17 7.5,14.17 7.5,13.33 8.34,14.17 7.5,14.16 7.5,14.17 7.5,14.17 8.33,14.16 7.5,14.17 7.5,14.17 8.33,14.16 7.5,14.17 7.5,14.17 8.34,14.16 7.5,14.17 7.5,15 7.5,14.17 8.33,14.16 7.5,14.17 7.5,15 8.33,14.17 7.5,14.16 7.5,15 8.34,14.17 7.5,14.17 7.5,15 7.5,14.16 8.33,14.17 7.5,15 7.5,14.17 8.33,14.16 7.5,14.17 7.5,14.17 8.34,15 7.5,14.16 7.5,14.17 7.5,14.17 8.33,14.16 7.5,14.17 7.5,13.33 8.33,14.17 7.5,14.17 7.5,14.16 8.34,13.34 7.5,14.16 7.5,13.34 7.5,14.16 8.33,13.34 7.5,13.33 7.5,13.33 8.33,13.34 7.5,13.33 7.5,13.33 8.34,13.34 7.5,12.5 7.5,13.33 7.5,12.5 8.33,12.5 7.5,12.5 7.5,12.5 8.33,12.5 7.5,12.5 7.5,11.67 7.5,12.5 8.34,11.66 7.5,11.67 7.5,11.67 8.33,11.66 7.5,11.67 7.5,10.83 8.33,11.67 7.5,10.83 7.5,10.84 7.5,10 8.34,10.83 7.5,10 7.5,10.83 8.33,10 7.5,10 7.5,9.17 8.33,10 7.5,9.17 7.5,9.16 7.5,9.17 8.34,8.33 7.5,9.17 7.5,8.33 8.33,8.34 7.5,8.33 7.5,7.5 8.33,8.33 7.5,7.5 7.5,7.5 7.5,6.67 8.34,6.67 7.5,7.5 7.5,5.83 8.33,6.67 7.5,5.83 7.5,6.67 8.33,5 7.5,5.83 7.5,5 7.5,5.83 8.34,4.17 7.5,5 7.5,4.17 8.33,4.16 7.5,4.17 7.5,4.17 8.33,3.33 7.5,3.33 7.5,3.34 7.5,2.5 8.34,2.5 7.5,2.5 7.5,2.5 8.33,1.66 7.5,1.67 7.5,1.67 8.33,1.66 7.5,0.84 7.5,0.83 7.5,0.83 31.67,0 7.5,-0.83 7.5,-0.83 7.5,-0.84 8.33,-0.83 7.5,-1.67 7.5,-1.66 8.34,-1.67 7.5,-2.5 7.5,-2.5 8.33,-2.5 7.5,-2.5 7.5,-3.33 7.5,-3.34 8.33,-3.33 7.5,-4.17 7.5,-4.16 8.34,-4.17 7.5,-4.17 7.5,-4.16 8.33,-5 7.5,-5 7.5,-5.84 7.5,-5 8.33,-5.83 7.5,-5.83 7.5,-5.84 8.34,-6.66 7.5,-6.67 7.5,-6.67 8.33,-6.66 7.5,-7.5 7.5,-6.67 7.5,-7.5 8.33,-8.33 7.5,-7.5 7.5,-8.34 8.34,-8.33 7.5,-8.33 7.5,-8.34 8.33,-9.16 7.5,-9.17 7.5,-9.17 7.5,-9.16 8.33,-9.17 7.5,-10 7.5,-10 8.34,-10 7.5,-10 7.5,-10 8.33,-10.83 7.5,-10.84 7.5,-10.83 7.5,-10.83 8.33,-10.84 7.5,-11.66 7.5,-10.84"
                         style="fill:none;stroke:#e68000;stroke-width:20;stroke-linecap:butt;stroke-linejoin:round;stroke-miterlimit:10;stroke-opacity:1;stroke-dasharray:none"
                         id="path4324" />
                      <path
                         inkscape:connector-curvature="0"
                         d="m 3907.5,385.832 991.67,0 7.5,0.836 131.66,0 8.34,0.832 77.5,0 7.5,0.832 54.16,0 7.5,0.836 39.17,0 7.5,0.832 39.17,0 7.5,0.832 23.33,0 7.5,0.836 23.33,0 7.5,0.832 23.34,0 8.33,0.832 15,0 7.5,0.836 15.83,0 7.5,0.832 15.84,0 7.5,0.832 8.33,0 7.5,0.836 7.5,0 7.5,0.832 15.83,0 7.5,0.832 8.34,0 7.5,0.836 7.5,0 8.33,0.832 7.5,0.832 7.5,0 7.5,0.836 8.33,0 7.5,0.832 7.5,0 8.34,0.832 7.5,0.836 7.5,0.832 8.33,0 7.5,0.832 7.5,0.836 7.5,0 8.33,0.832 7.5,0.832 7.5,0.836 8.34,0.832 7.5,0.832 7.5,0 8.33,0.836 7.5,0.832 7.5,0.832 7.5,0.836 8.33,0.832 7.5,0.832 7.5,0.836 8.34,1.664 7.5,0.836 7.5,0.832 7.5,0.832 8.33,0.836 7.5,0.832 7.5,1.668 8.33,0.832 7.5,0.832 7.5,1.668 8.34,0.832 7.5,1.668 7.5,0.832 7.5,1.668 8.33,0.832 7.5,1.668 7.5,0.832 8.33,1.668 7.5,1.668 7.5,0.832 8.34,1.668 7.5,1.664 7.5,1.668 7.5,1.668 8.33,1.664 7.5,1.668 7.5,1.668 8.33,1.664 7.5,1.668 7.5,1.668 8.34,2.5 7.5,1.664 7.5,1.668 7.5,2.5 8.33,1.668 7.5,1.664 7.5,2.5 8.33,2.5 7.5,1.668 7.5,2.5 8.34,2.5 7.5,2.5 7.5,2.5 7.5,1.668 8.33,3.332 7.5,2.5 7.5,2.5 8.33,2.5 7.5,2.5 7.5,3.332 8.34,2.5 7.5,2.5 7.5,3.336 7.5,3.332 8.33,2.5 7.5,3.332 7.5,3.336 8.33,3.332 7.5,3.332 7.5,3.336 8.34,3.332 7.5,3.332 7.5,3.336"
                         style="fill:none;stroke:#e68000;stroke-width:20;stroke-linecap:butt;stroke-linejoin:round;stroke-miterlimit:10;stroke-opacity:1;stroke-dasharray:none"
                         id="path4326" />
                      <path
                         inkscape:connector-curvature="0"
                         d="m 1590.83,385.832 2316.67,0"
                         style="fill:none;stroke:#e68000;stroke-width:20;stroke-linecap:butt;stroke-linejoin:round;stroke-miterlimit:10;stroke-opacity:1;stroke-dasharray:none"
                         id="path4328" />
                      <path
                         inkscape:connector-curvature="0"
                         d="m 1559.17,385.832 31.66,0"
                         style="fill:none;stroke:#e68000;stroke-width:20;stroke-linecap:butt;stroke-linejoin:round;stroke-miterlimit:10;stroke-opacity:1;stroke-dasharray:none"
                         id="path4330" />
                    </g>
                  </g>
                </g>
              </g>
            </g>
          </g>
        </g>
      </g>
    </g>
  </g>
</svg>
