<?xml version="1.0" encoding="UTF-8" standalone="no"?>
<!-- Created with Inkscape (http://www.inkscape.org/) -->

<svg
   xmlns:dc="http://purl.org/dc/elements/1.1/"
   xmlns:cc="http://creativecommons.org/ns#"
   xmlns:rdf="http://www.w3.org/1999/02/22-rdf-syntax-ns#"
   xmlns:svg="http://www.w3.org/2000/svg"
   xmlns="http://www.w3.org/2000/svg"
   xmlns:sodipodi="http://sodipodi.sourceforge.net/DTD/sodipodi-0.dtd"
   xmlns:inkscape="http://www.inkscape.org/namespaces/inkscape"
   width="582.8125"
   height="584.271"
   id="svg2"
   version="1.1"
   inkscape:version="0.48.3.1 r9886"
   sodipodi:docname="gridworld_with_state_number.svg"
   inkscape:export-filename="/home/jgrizou/Dropbox/thesis/visuals/worlds_and_datasets/gridworld_with_state_number.png"
   inkscape:export-xdpi="300"
   inkscape:export-ydpi="300">
  <defs
     id="defs4">
    <marker
       inkscape:stockid="Arrow2Lend"
       orient="auto"
       refY="0"
       refX="0"
       id="Arrow2Lend"
       style="overflow:visible">
      <path
         id="path3853"
         style="fill-rule:evenodd;stroke-width:0.625;stroke-linejoin:round"
         d="M 8.7185878,4.0337352 -2.2072895,0.01601326 8.7185884,-4.0017078 c -1.7454984,2.3720609 -1.7354408,5.6174519 -6e-7,8.035443 z"
         transform="matrix(-1.1,0,0,-1.1,-1.1,0)"
         inkscape:connector-curvature="0" />
    </marker>
    <clipPath
       id="clipPath3055"
       clipPathUnits="userSpaceOnUse">
      <path
         id="path3057"
         d="m 780,5550 4650,0 0,-4890 -4650,0 0,4890 z"
         inkscape:connector-curvature="0" />
    </clipPath>
    <clipPath
       id="clipPath3035"
       clipPathUnits="userSpaceOnUse">
      <path
         id="path3037"
         d="m 780,5550 4650,0 0,-4890 -4650,0 0,4890 z"
         inkscape:connector-curvature="0" />
    </clipPath>
    <clipPath
       id="clipPath3015"
       clipPathUnits="userSpaceOnUse">
      <path
         id="path3017"
         d="m 780,5550 4650,0 0,-4890 -4650,0 0,4890 z"
         inkscape:connector-curvature="0" />
    </clipPath>
    <clipPath
       id="clipPath3003"
       clipPathUnits="userSpaceOnUse">
      <path
         id="path3005"
         d="m 780,5550 4650,0 0,-4890 -4650,0 0,4890 z"
         inkscape:connector-curvature="0" />
    </clipPath>
    <marker
       inkscape:stockid="Arrow2Lend"
       orient="auto"
       refY="0"
       refX="0"
       id="Arrow2Lend-0"
       style="overflow:visible">
      <path
         inkscape:connector-curvature="0"
         id="path3853-4"
         style="fill-rule:evenodd;stroke-width:0.625;stroke-linejoin:round"
         d="M 8.7185878,4.0337352 -2.2072895,0.01601326 8.7185884,-4.0017078 c -1.7454984,2.3720609 -1.7354408,5.6174519 -6e-7,8.035443 z"
         transform="matrix(-1.1,0,0,-1.1,-1.1,0)" />
    </marker>
    <marker
       inkscape:stockid="Arrow2Lend"
       orient="auto"
       refY="0"
       refX="0"
       id="Arrow2Lend-8"
       style="overflow:visible">
      <path
         inkscape:connector-curvature="0"
         id="path3853-3"
         style="fill-rule:evenodd;stroke-width:0.625;stroke-linejoin:round"
         d="M 8.7185878,4.0337352 -2.2072895,0.01601326 8.7185884,-4.0017078 c -1.7454984,2.3720609 -1.7354408,5.6174519 -6e-7,8.035443 z"
         transform="matrix(-1.1,0,0,-1.1,-1.1,0)" />
    </marker>
    <marker
       inkscape:stockid="Arrow2Lend"
       orient="auto"
       refY="0"
       refX="0"
       id="Arrow2Lend-1"
       style="overflow:visible">
      <path
         inkscape:connector-curvature="0"
         id="path3853-1"
         style="fill-rule:evenodd;stroke-width:0.625;stroke-linejoin:round"
         d="M 8.7185878,4.0337352 -2.2072895,0.01601326 8.7185884,-4.0017078 c -1.7454984,2.3720609 -1.7354408,5.6174519 -6e-7,8.035443 z"
         transform="matrix(-1.1,0,0,-1.1,-1.1,0)" />
    </marker>
    <marker
       inkscape:stockid="Arrow2Lend"
       orient="auto"
       refY="0"
       refX="0"
       id="Arrow2Lend-01"
       style="overflow:visible">
      <path
         inkscape:connector-curvature="0"
         id="path3853-42"
         style="fill-rule:evenodd;stroke-width:0.625;stroke-linejoin:round"
         d="M 8.7185878,4.0337352 -2.2072895,0.01601326 8.7185884,-4.0017078 c -1.7454984,2.3720609 -1.7354408,5.6174519 -6e-7,8.035443 z"
         transform="matrix(-1.1,0,0,-1.1,-1.1,0)" />
    </marker>
    <marker
       inkscape:stockid="Arrow2Lend"
       orient="auto"
       refY="0"
       refX="0"
       id="marker4330"
       style="overflow:visible">
      <path
         inkscape:connector-curvature="0"
         id="path4332"
         style="fill-rule:evenodd;stroke-width:0.625;stroke-linejoin:round"
         d="M 8.7185878,4.0337352 -2.2072895,0.01601326 8.7185884,-4.0017078 c -1.7454984,2.3720609 -1.7354408,5.6174519 -6e-7,8.035443 z"
         transform="matrix(-1.1,0,0,-1.1,-1.1,0)" />
    </marker>
    <marker
       inkscape:stockid="Arrow2Lend"
       orient="auto"
       refY="0"
       refX="0"
       id="marker4334"
       style="overflow:visible">
      <path
         inkscape:connector-curvature="0"
         id="path4336"
         style="fill-rule:evenodd;stroke-width:0.625;stroke-linejoin:round"
         d="M 8.7185878,4.0337352 -2.2072895,0.01601326 8.7185884,-4.0017078 c -1.7454984,2.3720609 -1.7354408,5.6174519 -6e-7,8.035443 z"
         transform="matrix(-1.1,0,0,-1.1,-1.1,0)" />
    </marker>
    <marker
       inkscape:stockid="Arrow2Lend"
       orient="auto"
       refY="0"
       refX="0"
       id="Arrow2Lend-17"
       style="overflow:visible">
      <path
         inkscape:connector-curvature="0"
         id="path3853-2"
         style="fill-rule:evenodd;stroke-width:0.625;stroke-linejoin:round"
         d="M 8.7185878,4.0337352 -2.2072895,0.01601326 8.7185884,-4.0017078 c -1.7454984,2.3720609 -1.7354408,5.6174519 -6e-7,8.035443 z"
         transform="matrix(-1.1,0,0,-1.1,-1.1,0)" />
    </marker>
    <marker
       inkscape:stockid="Arrow2Lend"
       orient="auto"
       refY="0"
       refX="0"
       id="marker4330-5"
       style="overflow:visible">
      <path
         inkscape:connector-curvature="0"
         id="path4332-6"
         style="fill-rule:evenodd;stroke-width:0.625;stroke-linejoin:round"
         d="M 8.7185878,4.0337352 -2.2072895,0.01601326 8.7185884,-4.0017078 c -1.7454984,2.3720609 -1.7354408,5.6174519 -6e-7,8.035443 z"
         transform="matrix(-1.1,0,0,-1.1,-1.1,0)" />
    </marker>
    <marker
       inkscape:stockid="Arrow2Lend"
       orient="auto"
       refY="0"
       refX="0"
       id="marker4334-1"
       style="overflow:visible">
      <path
         inkscape:connector-curvature="0"
         id="path4336-5"
         style="fill-rule:evenodd;stroke-width:0.625;stroke-linejoin:round"
         d="M 8.7185878,4.0337352 -2.2072895,0.01601326 8.7185884,-4.0017078 c -1.7454984,2.3720609 -1.7354408,5.6174519 -6e-7,8.035443 z"
         transform="matrix(-1.1,0,0,-1.1,-1.1,0)" />
    </marker>
    <marker
       inkscape:stockid="Arrow2Lend"
       orient="auto"
       refY="0"
       refX="0"
       id="Arrow2Lend-2"
       style="overflow:visible">
      <path
         inkscape:connector-curvature="0"
         id="path3853-33"
         style="fill-rule:evenodd;stroke-width:0.625;stroke-linejoin:round"
         d="M 8.7185878,4.0337352 -2.2072895,0.01601326 8.7185884,-4.0017078 c -1.7454984,2.3720609 -1.7354408,5.6174519 -6e-7,8.035443 z"
         transform="matrix(-1.1,0,0,-1.1,-1.1,0)" />
    </marker>
    <marker
       inkscape:stockid="Arrow2Lend"
       orient="auto"
       refY="0"
       refX="0"
       id="Arrow2Lend-4"
       style="overflow:visible">
      <path
         inkscape:connector-curvature="0"
         id="path3853-8"
         style="fill-rule:evenodd;stroke-width:0.625;stroke-linejoin:round"
         d="M 8.7185878,4.0337352 -2.2072895,0.01601326 8.7185884,-4.0017078 c -1.7454984,2.3720609 -1.7354408,5.6174519 -6e-7,8.035443 z"
         transform="matrix(-1.1,0,0,-1.1,-1.1,0)" />
    </marker>
    <marker
       inkscape:stockid="Arrow2Lend"
       orient="auto"
       refY="0"
       refX="0"
       id="Arrow2Lend-14"
       style="overflow:visible">
      <path
         inkscape:connector-curvature="0"
         id="path3853-9"
         style="fill-rule:evenodd;stroke-width:0.625;stroke-linejoin:round"
         d="M 8.7185878,4.0337352 -2.2072895,0.01601326 8.7185884,-4.0017078 c -1.7454984,2.3720609 -1.7354408,5.6174519 -6e-7,8.035443 z"
         transform="matrix(-1.1,0,0,-1.1,-1.1,0)" />
    </marker>
  </defs>
  <sodipodi:namedview
     id="base"
     pagecolor="#ffffff"
     bordercolor="#666666"
     borderopacity="1.0"
     inkscape:pageopacity="0.0"
     inkscape:pageshadow="2"
     inkscape:zoom="0.9701505"
     inkscape:cx="268.1447"
     inkscape:cy="186.58996"
     inkscape:document-units="px"
     inkscape:current-layer="g2995"
     showgrid="false"
     fit-margin-top="0"
     fit-margin-left="0"
     fit-margin-right="0"
     fit-margin-bottom="0"
     inkscape:window-width="1855"
     inkscape:window-height="1176"
     inkscape:window-x="65"
     inkscape:window-y="313"
     inkscape:window-maximized="1" />
  <metadata
     id="metadata7">
    <rdf:RDF>
      <cc:Work
         rdf:about="">
        <dc:format>image/svg+xml</dc:format>
        <dc:type
           rdf:resource="http://purl.org/dc/dcmitype/StillImage" />
        <dc:title></dc:title>
      </cc:Work>
    </rdf:RDF>
  </metadata>
  <g
     inkscape:label="Layer 1"
     inkscape:groupmode="layer"
     id="layer1"
     transform="translate(-545.84821,-317.04968)">
    <g
       transform="matrix(1.25,0,0,-1.25,449.91071,997.36218)"
       inkscape:label="ink_ext_XXXXXX"
       id="g2993">
      <g
         transform="scale(0.1,0.1)"
         id="g2995">
        <g
           id="g2999"
           inkscape:export-filename="/home/jgrizou/Dropbox/thesis/visuals/worlds_and_datasets/gridworld_with_state_number.png"
           inkscape:export-xdpi="90"
           inkscape:export-ydpi="90">
          <g
             clip-path="url(#clipPath3003)"
             id="g3001">
            <path
               id="path3007"
               style="fill:#ffffff;fill-opacity:1;fill-rule:nonzero;stroke:none"
               d="m 780,780.836 1549.16,0 0,1550 -1549.16,0 0,-1550 z"
               inkscape:connector-curvature="0" />
          </g>
        </g>
        <path
           id="path3009"
           style="fill:none;stroke:#000000;stroke-width:25;stroke-linecap:butt;stroke-linejoin:round;stroke-miterlimit:10;stroke-opacity:1;stroke-dasharray:none"
           d="m 780,780.832 1549.17,0 0,1550 -1549.17,0 0,-1550 z"
           inkscape:connector-curvature="0"
           inkscape:export-filename="/home/jgrizou/Dropbox/thesis/visuals/worlds_and_datasets/gridworld_with_state_number.png"
           inkscape:export-xdpi="90"
           inkscape:export-ydpi="90" />
        <g
           id="g3011"
           inkscape:export-filename="/home/jgrizou/Dropbox/thesis/visuals/worlds_and_datasets/gridworld_with_state_number.png"
           inkscape:export-xdpi="90"
           inkscape:export-ydpi="90">
          <g
             clip-path="url(#clipPath3015)"
             id="g3013">
            <path
               id="path3019"
               style="fill:#ffffff;fill-opacity:1;fill-rule:nonzero;stroke:none"
               d="m 2329.16,780.836 1550,0 0,1550 -1550,0 0,-1550 z"
               inkscape:connector-curvature="0" />
            <path
               id="path3021"
               style="fill:none;stroke:#000000;stroke-width:25;stroke-linecap:butt;stroke-linejoin:miter;stroke-miterlimit:10;stroke-opacity:1;stroke-dasharray:none"
               d="m 2329.17,780.832 1550,0 0,1550 -1550,0 0,-1550 z"
               inkscape:connector-curvature="0" />
            <path
               id="path3023"
               style="fill:#ffffff;fill-opacity:1;fill-rule:nonzero;stroke:none"
               d="m 3879.16,780.836 1550,0 0,1550 -1550,0 0,-1550 z"
               inkscape:connector-curvature="0" />
            <path
               id="path3025"
               style="fill:none;stroke:#000000;stroke-width:25;stroke-linecap:butt;stroke-linejoin:miter;stroke-miterlimit:10;stroke-opacity:1;stroke-dasharray:none"
               d="m 3879.17,780.832 1550,0 0,1550 -1550,0 0,-1550 z"
               inkscape:connector-curvature="0" />
            <path
               id="path3027"
               style="fill:#ffffff;fill-opacity:1;fill-rule:nonzero;stroke:none"
               d="m 780,2330.84 1549.16,0 0,1549.16 -1549.16,0 0,-1549.16 z"
               inkscape:connector-curvature="0" />
          </g>
        </g>
        <path
           id="path3029"
           style="fill:none;stroke:#000000;stroke-width:25;stroke-linecap:butt;stroke-linejoin:round;stroke-miterlimit:10;stroke-opacity:1;stroke-dasharray:none"
           d="m 780,2330.83 1549.17,0 0,1549.17 -1549.17,0 0,-1549.17 z"
           inkscape:connector-curvature="0"
           inkscape:export-filename="/home/jgrizou/Dropbox/thesis/visuals/worlds_and_datasets/gridworld_with_state_number.png"
           inkscape:export-xdpi="90"
           inkscape:export-ydpi="90" />
        <g
           id="g3031"
           inkscape:export-filename="/home/jgrizou/Dropbox/thesis/visuals/worlds_and_datasets/gridworld_with_state_number.png"
           inkscape:export-xdpi="90"
           inkscape:export-ydpi="90">
          <g
             clip-path="url(#clipPath3035)"
             id="g3033">
            <path
               id="path3039"
               style="fill:#ffffff;fill-opacity:1;fill-rule:nonzero;stroke:none"
               d="m 2329.16,2330.84 1550,0 0,1549.16 -1550,0 0,-1549.16 z"
               inkscape:connector-curvature="0" />
            <path
               id="path3041"
               style="fill:none;stroke:#000000;stroke-width:25;stroke-linecap:butt;stroke-linejoin:miter;stroke-miterlimit:10;stroke-opacity:1;stroke-dasharray:none"
               d="m 2329.17,2330.83 1550,0 0,1549.17 -1550,0 0,-1549.17 z"
               inkscape:connector-curvature="0" />
            <path
               id="path3043"
               style="fill:#ffffff;fill-opacity:1;fill-rule:nonzero;stroke:none"
               d="m 3879.16,2330.84 1550,0 0,1549.16 -1550,0 0,-1549.16 z"
               inkscape:connector-curvature="0" />
            <path
               id="path3045"
               style="fill:none;stroke:#000000;stroke-width:25;stroke-linecap:butt;stroke-linejoin:miter;stroke-miterlimit:10;stroke-opacity:1;stroke-dasharray:none"
               d="m 3879.17,2330.83 1550,0 0,1549.17 -1550,0 0,-1549.17 z"
               inkscape:connector-curvature="0" />
            <path
               id="path3047"
               style="fill:#ffffff;fill-opacity:1;fill-rule:nonzero;stroke:none"
               d="m 780,3880 1549.16,0 0,1550 -1549.16,0 0,-1550 z"
               inkscape:connector-curvature="0" />
          </g>
        </g>
        <path
           id="path3049"
           style="fill:none;stroke:#000000;stroke-width:25;stroke-linecap:butt;stroke-linejoin:round;stroke-miterlimit:10;stroke-opacity:1;stroke-dasharray:none"
           d="m 780,3880 1549.17,0 0,1550 -1549.17,0 0,-1550 z"
           inkscape:connector-curvature="0"
           inkscape:export-filename="/home/jgrizou/Dropbox/thesis/visuals/worlds_and_datasets/gridworld_with_state_number.png"
           inkscape:export-xdpi="90"
           inkscape:export-ydpi="90" />
        <g
           id="g3051"
           inkscape:export-filename="/home/jgrizou/Dropbox/thesis/visuals/worlds_and_datasets/gridworld_with_state_number.png"
           inkscape:export-xdpi="90"
           inkscape:export-ydpi="90">
          <g
             clip-path="url(#clipPath3055)"
             id="g3053">
            <path
               id="path3059"
               style="fill:#ffffff;fill-opacity:1;fill-rule:nonzero;stroke:none"
               d="m 2329.16,3880 1550,0 0,1550 -1550,0 0,-1550 z"
               inkscape:connector-curvature="0" />
            <path
               id="path3061"
               style="fill:none;stroke:#000000;stroke-width:25;stroke-linecap:butt;stroke-linejoin:miter;stroke-miterlimit:10;stroke-opacity:1;stroke-dasharray:none"
               d="m 2329.17,3880 1550,0 0,1550 -1550,0 0,-1550 z"
               inkscape:connector-curvature="0" />
            <path
               id="path3063"
               style="fill:#ffffff;fill-opacity:1;fill-rule:nonzero;stroke:none"
               d="m 3879.16,3880 1550,0 0,1550 -1550,0 0,-1550 z"
               inkscape:connector-curvature="0" />
            <path
               id="path3065"
               style="fill:none;stroke:#000000;stroke-width:25;stroke-linecap:butt;stroke-linejoin:miter;stroke-miterlimit:10;stroke-opacity:1;stroke-dasharray:none"
               d="m 3879.17,3880 1550,0 0,1550 -1550,0 0,-1550 z"
               inkscape:connector-curvature="0" />
          </g>
        </g>
        <path
           style="fill:none;stroke:#000000;stroke-width:56;stroke-linecap:butt;stroke-linejoin:miter;stroke-miterlimit:4;stroke-opacity:1;stroke-dasharray:none;marker-end:url(#Arrow2Lend)"
           d="m 1691.0681,4649.08 c 140.1843,0 140.1843,0 140.1843,0"
           id="path3058"
           inkscape:connector-curvature="0" />
        <path
           style="fill:none;stroke:#000000;stroke-width:56;stroke-linecap:butt;stroke-linejoin:miter;stroke-miterlimit:4;stroke-opacity:1;stroke-dasharray:none;marker-end:url(#Arrow2Lend)"
           d="m 3256.9711,4649.08 c 140.1843,0 140.1843,0 140.1843,0"
           id="path3058-9"
           inkscape:connector-curvature="0" />
        <path
           style="fill:none;stroke:#000000;stroke-width:56;stroke-linecap:butt;stroke-linejoin:miter;stroke-miterlimit:4;stroke-opacity:1;stroke-dasharray:none;marker-end:url(#Arrow2Lend)"
           d="m 4669.8969,4510.1298 c 0,-140.1843 0,-140.1843 0,-140.1843"
           id="path3058-5"
           inkscape:connector-curvature="0" />
        <path
           style="fill:none;stroke:#000000;stroke-width:56;stroke-linecap:butt;stroke-linejoin:miter;stroke-miterlimit:4;stroke-opacity:1;stroke-dasharray:none;marker-end:url(#Arrow2Lend)"
           d="m 1516.2999,1704.463 c 0,140.1843 0,140.1843 0,140.1843"
           id="path3058-3"
           inkscape:connector-curvature="0" />
        <path
           style="fill:none;stroke:#000000;stroke-width:56;stroke-linecap:butt;stroke-linejoin:miter;stroke-miterlimit:4;stroke-opacity:1;stroke-dasharray:none;marker-end:url(#Arrow2Lend)"
           d="m 2929.2257,1549.5128 c -140.1843,0 -140.1843,0 -140.1843,0"
           id="path3058-9-7"
           inkscape:connector-curvature="0" />
        <path
           style="fill:none;stroke:#000000;stroke-width:56;stroke-linecap:butt;stroke-linejoin:miter;stroke-miterlimit:4;stroke-opacity:1;stroke-dasharray:none;marker-end:url(#Arrow2Lend)"
           d="m 4495.1286,1549.5128 c -140.1842,0 -140.1842,0 -140.1842,0"
           id="path3058-5-9"
           inkscape:connector-curvature="0" />
        <path
           style="fill:none;stroke:#000000;stroke-width:56;stroke-linecap:butt;stroke-linejoin:miter;stroke-miterlimit:4;stroke-opacity:1;stroke-dasharray:none;marker-end:url(#Arrow2Lend)"
           d="m 1516.2999,3277.015 c 0,140.1843 0,140.1843 0,140.1843"
           id="path3058-95"
           inkscape:connector-curvature="0" />
        <path
           style="fill:none;stroke:#000000;stroke-width:56;stroke-linecap:butt;stroke-linejoin:miter;stroke-miterlimit:4;stroke-opacity:1;stroke-dasharray:none;marker-end:url(#Arrow2Lend)"
           d="m 4669.8969,2969.0874 c 0,-140.1842 0,-140.1842 0,-140.1842"
           id="path3058-5-98"
           inkscape:connector-curvature="0" />
        <g
           id="g4433">
          <path
             inkscape:connector-curvature="0"
             id="path3058-9-5"
             d="m 3405.8917,3180.7048 c 47.866,0 47.866,0 47.866,0"
             style="fill:none;stroke:#000000;stroke-width:24;stroke-linecap:butt;stroke-linejoin:miter;stroke-miterlimit:4;stroke-opacity:1;stroke-dasharray:none;marker-end:url(#Arrow2Lend)" />
          <path
             inkscape:connector-curvature="0"
             id="path3058-9-5-9"
             d="m 2715.6606,3179.8593 c -47.866,0 -47.866,0 -47.866,0"
             style="fill:none;stroke:#000000;stroke-width:24;stroke-linecap:butt;stroke-linejoin:miter;stroke-miterlimit:4;stroke-opacity:1;stroke-dasharray:none;marker-end:url(#Arrow2Lend)" />
          <path
             inkscape:connector-curvature="0"
             id="path3058-9-5-7"
             d="m 3059.5051,3526.1186 c 0,47.866 0,47.866 0,47.866"
             style="fill:none;stroke:#000000;stroke-width:24;stroke-linecap:butt;stroke-linejoin:miter;stroke-miterlimit:4;stroke-opacity:1;stroke-dasharray:none;marker-end:url(#Arrow2Lend)" />
          <path
             inkscape:connector-curvature="0"
             id="path3058-9-5-6"
             d="m 3060.3506,2833.9531 c 0,-47.866 0,-47.866 0,-47.866"
             style="fill:none;stroke:#000000;stroke-width:24;stroke-linecap:butt;stroke-linejoin:miter;stroke-miterlimit:4;stroke-opacity:1;stroke-dasharray:none;marker-end:url(#Arrow2Lend)" />
        </g>
      </g>
    </g>
  </g>
</svg>
